<svg width="38" height="33" viewBox="0 0 38 33" fill="none" xmlns="http://www.w3.org/2000/svg">
<g filter="url(#filter0_d_3_105)">
<path d="M32.4748 5.61034L29.4047 0.70957C29.1303 0.269637 28.6431 0 28.1227 0H9.01163C8.49128 0 8.00404 0.269637 7.72968 0.70957L4.6596 5.61034C3.0749 8.14114 4.47985 11.6606 7.44112 12.0627C7.65399 12.0911 7.87159 12.1053 8.08919 12.1053C9.48941 12.1053 10.7288 11.4903 11.5803 10.5395C12.4318 11.4903 13.6759 12.1053 15.0714 12.1053C16.4716 12.1053 17.711 11.4903 18.5625 10.5395C19.4139 11.4903 20.658 12.1053 22.0535 12.1053C23.4538 12.1053 24.6931 11.4903 25.5446 10.5395C26.4008 11.4903 27.6402 12.1053 29.0357 12.1053C29.258 12.1053 29.4709 12.0911 29.6838 12.0627C32.6545 11.6653 34.0642 8.14587 32.4748 5.61034ZM29.0452 13.6237C28.5721 13.6237 28.1038 13.5528 27.6497 13.444V18.165H9.48468V13.444C9.03056 13.5481 8.56224 13.6237 8.08919 13.6237C7.80536 13.6237 7.51681 13.6048 7.23771 13.567C6.9728 13.5291 6.71263 13.4676 6.46191 13.3967V22.7062C6.46191 23.5435 7.13837 24.22 7.97566 24.22H29.1682C30.0055 24.22 30.6819 23.5435 30.6819 22.7062V13.3967C30.4265 13.4724 30.171 13.5339 29.9061 13.567C29.6176 13.6048 29.3337 13.6237 29.0452 13.6237Z" fill="black"/>
</g>
<defs>
<filter id="filter0_d_3_105" x="0" y="0" width="37.1362" height="32.22" filterUnits="userSpaceOnUse" color-interpolation-filters="sRGB">
<feFlood flood-opacity="0" result="BackgroundImageFix"/>
<feColorMatrix in="SourceAlpha" type="matrix" values="0 0 0 0 0 0 0 0 0 0 0 0 0 0 0 0 0 0 127 0" result="hardAlpha"/>
<feOffset dy="4"/>
<feGaussianBlur stdDeviation="2"/>
<feComposite in2="hardAlpha" operator="out"/>
<feColorMatrix type="matrix" values="0 0 0 0 0 0 0 0 0 0 0 0 0 0 0 0 0 0 0.25 0"/>
<feBlend mode="normal" in2="BackgroundImageFix" result="effect1_dropShadow_3_105"/>
<feBlend mode="normal" in="SourceGraphic" in2="effect1_dropShadow_3_105" result="shape"/>
</filter>
</defs>
</svg>
