<svg width="83" height="67" viewBox="0 0 83 67" fill="none" xmlns="http://www.w3.org/2000/svg">
<path d="M49 10H48V12H49V10Z" fill="#F2F2F2"/>
<path d="M74 57H61V58H74V57Z" fill="#F2F2F2"/>
<path d="M34 63H12V62.8406H33.8417V55.1073H13.8495L12.8783 53.069L13.021 53L13.9491 54.9478H34V63Z" fill="#2F2E41"/>
<path d="M14.5 67C15.3284 67 16 66.1046 16 65C16 63.8954 15.3284 63 14.5 63C13.6716 63 13 63.8954 13 65C13 66.1046 13.6716 67 14.5 67Z" fill="#3F3D56"/>
<path d="M31 67C32.1046 67 33 66.1046 33 65C33 63.8954 32.1046 63 31 63C29.8954 63 29 63.8954 29 65C29 66.1046 29.8954 67 31 67Z" fill="#3F3D56"/>
<path d="M50 32C50.5523 32 51 31.5523 51 31C51 30.4477 50.5523 30 50 30C49.4477 30 49 30.4477 49 31C49 31.5523 49.4477 32 50 32Z" fill="#3F3D56"/>
<path d="M35.5809 53H11.262L6 36H41L40.9682 36.1L35.5809 53ZM11.3772 52.8462H35.4667L40.7878 36.1538H6.21038L11.3772 52.8462Z" fill="#2F2E41"/>
<path d="M34.2003 52H12.6607L8 37H39L38.9718 37.0883L34.2003 52Z" fill="#F2F2F2"/>
<path d="M42.1505 34L42 33.9694L43.0268 31H49V31.1194H43.1466L42.1505 34Z" fill="#2F2E41"/>
<path d="M30.781 36.0376L29.6482 52.746L29.8057 52.756L30.9384 36.0476L30.781 36.0376Z" fill="#2F2E41"/>
<path d="M16.4964 36.0374L16.3389 36.0474L17.4651 52.7562L17.6225 52.7462L16.4964 36.0374Z" fill="#2F2E41"/>
<path d="M55 5.25974C55 5.25974 56.4054 9.05844 55.5405 9.64286C54.6757 10.2273 58.4595 15 58.4595 15L63 13.8312L60.5135 9.83766C60.5135 9.83766 60.1892 5.84416 60.1892 5.25974C60.1892 4.67532 55 5.25974 55 5.25974Z" fill="#A0616A"/>
<path opacity="0.1" d="M55 5.25974C55 5.25974 56.4054 9.05844 55.5405 9.64286C54.6757 10.2273 58.4595 15 58.4595 15L63 13.8312L60.5135 9.83766C60.5135 9.83766 60.1892 5.84416 60.1892 5.25974C60.1892 4.67532 55 5.25974 55 5.25974Z" fill="black"/>
<path d="M53.1687 31.832C53.1687 31.832 52.7891 36.6324 53.1687 39.1286C53.5484 41.6248 54.1178 48.5374 54.1178 48.5374C54.1178 48.5374 54.1178 61.5946 56.2058 61.7866C58.2938 61.9786 59.8123 62.1706 60.0022 61.4025C60.192 60.6345 59.0531 60.2504 59.6225 59.8664C60.192 59.4824 60.3818 58.1383 59.6225 56.6021C58.8633 55.066 59.6225 39.5126 59.6225 39.5126L63.2291 49.3055C63.2291 49.3055 63.6087 57.3702 63.9883 58.5223C64.368 59.6744 63.6087 61.7866 64.9374 61.9786C66.2661 62.1706 67.7847 61.0185 68.544 60.6345C69.3032 60.2504 67.4051 60.2504 67.7847 60.0584C68.1643 59.8664 69.3032 59.2903 68.9236 59.0983C68.544 58.9063 68.1643 49.6895 68.1643 49.6895C68.1643 49.6895 67.1203 30.0078 65.7916 29.2398C64.4629 28.4717 63.6087 29.7946 63.6087 29.7946L53.1687 31.832Z" fill="#2F2E41"/>
<path d="M56.8 61V62.5707C56.8 62.5707 55 66.8405 56.8 66.8405C58.6 66.8405 60 67.283 60 66.6939V61.3927L56.8 61Z" fill="#2F2E41"/>
<path d="M68.2 61V62.5707C68.2 62.5707 70 66.8405 68.2 66.8405C66.4 66.8405 65 67.283 65 66.6939V61.3927L68.2 61Z" fill="#2F2E41"/>
<path d="M57.5 8C59.433 8 61 6.433 61 4.5C61 2.567 59.433 1 57.5 1C55.567 1 54 2.567 54 4.5C54 6.433 55.567 8 57.5 8Z" fill="#A0616A"/>
<path d="M56.4324 11C56.4324 11 57.5135 13.8874 59.2432 13.31L60.973 12.7325L64 31.2121C64 31.2121 61.6216 34.292 58.1622 32.3671C54.7027 30.4421 56.4324 11 56.4324 11Z" fill="#AECAA5"/>
<path d="M60 10.7743L60.8077 9C60.8077 9 65.5641 11.3346 66.2821 12.0817C67 12.8288 67 13.9494 67 13.9494L65.7436 18.6187C65.7436 18.6187 66.1026 28.891 66.1026 29.2646C66.1026 29.6381 67.359 31.6926 66.4615 30.9455C65.5641 30.1984 65.3846 29.4514 64.6667 30.572C63.9487 31.6926 62.3333 33 62.3333 33L60 10.7743Z" fill="#3F3D56"/>
<path d="M66.3401 24L65.7701 29.4505C65.7701 29.4505 62.3502 32.565 63.1102 32.7597C63.8702 32.9543 64.2502 32.1757 64.2502 32.1757C64.2502 32.1757 65.5801 33.5383 66.3401 32.7597C67.1001 31.981 69 24.584 69 24.584L66.3401 24Z" fill="#A0616A"/>
<path d="M58.0203 0.010885C57.252 -0.0146254 56.43 -0.0272445 55.7823 0.357304C55.4842 0.550293 55.2229 0.787977 55.0088 1.06063C54.378 1.80141 53.8329 2.73349 54.0672 3.6526L54.3394 3.554C54.3394 3.79934 54.2807 4.04161 54.1675 4.26328C54.2058 4.15976 54.3342 4.32711 54.2998 4.43182L54 5.34544C54.4928 5.17762 55.1059 5.51742 55.1809 6C55.2152 4.93882 55.3337 3.72198 56.2604 3.10061C56.7277 2.78726 57.3192 2.6916 57.8882 2.60665C58.4132 2.52829 58.9635 2.45356 59.4664 2.6141C59.9692 2.77464 60.3974 3.25234 60.2834 3.73477C60.5153 3.66058 60.7746 3.81067 60.8892 4.01207C61.0037 4.21347 61.0097 4.45104 61.0132 4.67881C61.2603 4.84106 61.5416 4.51888 61.6423 4.25378C61.8787 3.63152 62.0889 2.96914 61.9615 2.31995C61.8342 1.67076 61.2647 1.05037 60.5543 1.04816C60.6405 0.960187 60.6865 0.844506 60.6826 0.725587L60.0971 0.679632C60.2457 0.660081 60.3824 0.593132 60.4838 0.490251C60.2487 0.730539 58.4004 0.0235081 58.0203 0.010885Z" fill="#2F2E41"/>
<path d="M57.6528 10.4351C57.6528 10.4351 56.1345 8.91074 55.588 9.00412C55.0416 9.0975 54.2955 10.4351 54.2955 10.4351C54.2955 10.4351 49.8192 11.9639 50.0057 13.4926C50.1922 15.0213 52.2439 22.4739 52.2439 22.4739C52.2439 22.4739 53.9225 31.4551 52.4304 32.4106C50.9382 33.366 59.518 35.8502 59.7045 34.7037C59.891 33.5571 60.264 22.0917 59.7045 20.3719C59.1449 18.652 57.6528 10.4351 57.6528 10.4351Z" fill="#3F3D56"/>
<path d="M65 13H67.5471C67.5471 13 69.3259 20.6 69.5319 21.4C69.7379 22.2 70.1499 26 69.9439 26C69.7379 26 65.618 25.2 65.618 25.8L65 13Z" fill="#3F3D56"/>
<path d="M65 31H55.7087C54.802 26.8467 54.7263 22.8339 55.7087 19H65C63.5006 22.765 63.4069 26.7503 65 31Z" fill="#F2F2F2"/>
<path d="M51 25.7087L54.0732 26.8635C54.0732 26.8635 60 27.6334 60 25.5162C60 23.3991 54.0732 24.5539 54.0732 24.5539L52.0974 24L51 25.7087Z" fill="#A0616A"/>
<path d="M51.9244 12L49.7733 12.5625L48.16 22.5C48.16 22.5 47.6222 25.125 48.5185 25.3125C49.4148 25.5 51.9244 27 51.9244 27C51.9244 27 52.283 24.1875 53 24.1875L51.2074 22.6875L52.283 16.125L51.9244 12Z" fill="#3F3D56"/>
<path d="M20 5H19V7H20V5Z" fill="#F2F2F2"/>
<path d="M33 23H32V25H33V23Z" fill="#F2F2F2"/>
<path d="M11 23H10V24H11V23Z" fill="#F2F2F2"/>
</svg>
