<svg width="105" height="83" viewBox="0 0 105 83" fill="none" xmlns="http://www.w3.org/2000/svg">
<g clip-path="url(#clip0_1_682)">
<path d="M29.0704 81.1702L30.9455 80.9567L31.017 73.61L28.2496 73.9248L29.0704 81.1702Z" fill="#FFB8B8"/>
<path d="M34.759 82.2901L28.866 82.96L28.6077 80.679L32.2238 80.2679C32.8277 80.1993 33.434 80.3738 33.9094 80.753C34.3849 81.1322 34.6905 81.6851 34.759 82.2901H34.759Z" fill="#2F2E41"/>
<path d="M9.78681 81.0527H11.6739L12.5716 73.7606L9.7865 73.7609L9.78681 81.0527Z" fill="#FFB8B8"/>
<path d="M15.3133 82.8079L9.38255 82.8082L9.38245 80.5126L13.0218 80.5125C13.6295 80.5124 14.2124 80.7542 14.6421 81.1847C15.0719 81.6152 15.3133 82.1991 15.3133 82.8079Z" fill="#2F2E41"/>
<path d="M23.3261 48.4437L24.4036 51.9548L30.2527 64.6351L31.7919 76.6629L28.2517 76.8171L26.0968 65.7145L18.7084 57.6959L12.2436 78.6676L9.31909 78.3591C9.31909 78.3591 11.7819 51.2194 15.1682 48.4437C15.1682 48.4437 20.7094 45.8223 23.3261 48.4437Z" fill="#2F2E41"/>
<path d="M18.5466 33.2939C20.6346 33.2939 22.3272 31.5982 22.3272 29.5065C22.3272 27.4148 20.6346 25.7191 18.5466 25.7191C16.4587 25.7191 14.7661 27.4148 14.7661 29.5065C14.7661 31.5982 16.4587 33.2939 18.5466 33.2939Z" fill="#FFB8B8"/>
<path d="M23.7109 49.1377C23.7109 49.1377 24.1727 33.4089 17.7079 34.4884C11.2431 35.5678 13.9368 50.7568 13.9368 50.7568C13.9368 50.7568 15.3221 53.5324 18.7084 50.4484C22.0947 47.3643 23.7109 49.1377 23.7109 49.1377Z" fill="#CCCCCC"/>
<path opacity="0.2" d="M14.7834 41.1192L16.3047 46.9608L18.6223 49.2828L15.3991 48.2125L14.7834 41.1192Z" fill="black"/>
<path d="M23.7587 55.7897C23.546 55.7124 23.3527 55.5894 23.1926 55.4292C23.0325 55.269 22.9094 55.0756 22.8319 54.8626C22.7545 54.6496 22.7246 54.4222 22.7444 54.1964C22.7642 53.9705 22.8331 53.7518 22.9464 53.5556L19.351 49.3854L22.1854 49.0158L25.1651 53.0325C25.4816 53.2451 25.7092 53.5665 25.8049 53.9359C25.9006 54.3053 25.8577 54.6971 25.6843 55.037C25.511 55.3768 25.2192 55.6412 24.8643 55.7799C24.5094 55.9186 24.116 55.9221 23.7587 55.7897H23.7587Z" fill="#FFB8B8"/>
<path d="M19.3811 37.692L19.7859 45.6681L24.5575 51.8362L22.5565 53.3782L16.0917 46.9017C16.0917 46.9017 13.7829 39.0374 15.476 36.7243C16.111 35.8569 16.8109 35.6184 17.4377 35.659C17.9534 35.7021 18.4356 35.9325 18.7936 36.3069C19.1515 36.6814 19.3605 37.174 19.3811 37.692Z" fill="#CCCCCC"/>
<path d="M18.097 33.4861C18.115 33.4698 18.1291 33.4496 18.138 33.427C18.1469 33.4044 18.1504 33.3801 18.1483 33.3559C18.1461 33.3317 18.1384 33.3083 18.1256 33.2877C18.1129 33.267 18.0956 33.2496 18.0749 33.2368C17.7392 33.0285 17.4657 32.7335 17.2831 32.3827C17.1005 32.0319 17.0156 31.6384 17.0373 31.2434C17.0589 30.8484 17.1864 30.4665 17.4063 30.1379C17.6261 29.8093 17.9303 29.5461 18.2868 29.3759C19.3983 28.845 20.9044 29.258 21.726 28.2378C21.8931 28.0196 22.0113 27.7678 22.0725 27.4996C22.1336 27.2314 22.1364 26.9532 22.0805 26.6839C21.9032 25.7203 21.1801 25.0047 20.3703 24.5143C19.3756 23.9119 18.2323 23.6006 17.07 23.6158C15.9078 23.6309 14.7729 23.9719 13.7942 24.6C12.8154 25.2282 12.0318 26.1184 11.5322 27.1698C11.0326 28.2212 10.8369 29.3918 10.9673 30.549C11.0718 31.4764 11.3575 32.5163 10.807 33.2692C10.3226 33.9319 9.40813 34.0562 8.60487 34.2208C6.88198 34.574 5.21983 35.3887 4.05065 36.7047C2.88147 38.0208 2.25774 39.8672 2.61025 41.5932C2.96277 43.3192 4.37699 44.8361 6.11519 45.1036C7.53 45.3214 8.99089 44.7195 10.0299 43.733C11.0688 42.7466 11.7255 41.4145 12.1398 40.0419C12.6314 38.4127 12.8254 36.6571 13.713 35.2058C14.5816 33.7856 16.4534 32.7676 17.9205 33.5072C17.9486 33.5219 17.9805 33.5278 18.012 33.524C18.0435 33.5202 18.0731 33.507 18.097 33.486V33.4861Z" fill="#2F2E41"/>
<path d="M47.4085 83H0.153924C0.113101 83 0.073947 82.9838 0.0450807 82.9548C0.0162144 82.9259 0 82.8867 0 82.8458C0 82.8049 0.0162144 82.7657 0.0450807 82.7368C0.073947 82.7078 0.113101 82.6916 0.153924 82.6916H47.4085C47.4493 82.6916 47.4884 82.7078 47.5173 82.7368C47.5462 82.7657 47.5624 82.8049 47.5624 82.8458C47.5624 82.8867 47.5462 82.9259 47.5173 82.9548C47.4884 82.9838 47.4493 83 47.4085 83Z" fill="#3F3D56"/>
<path d="M95.1446 30.4983C95.1361 34.8663 93.4968 39.073 90.5492 42.2916C87.6015 45.5102 83.5587 47.5077 79.2155 47.8914C74.8722 48.2751 70.5428 47.0174 67.0783 44.3653C63.6139 41.7133 61.265 37.8589 60.4934 33.5598C59.7219 29.2607 60.5835 24.828 62.9089 21.1331C65.2343 17.4382 68.8552 14.7484 73.0598 13.5925C77.2645 12.4366 81.7486 12.8982 85.6308 14.8865C89.5129 16.8749 92.5122 20.2462 94.039 24.3376C94.0771 24.4404 94.1142 24.5431 94.1503 24.6468V24.6478C94.3115 25.1038 94.4535 25.5682 94.5762 26.0412C94.9548 27.4965 95.1459 28.9944 95.1446 30.4983Z" fill="#3F3D56"/>
<path d="M75.64 18.615C74.8499 18.1869 73.9727 17.9453 73.0752 17.9085C72.1778 17.8718 71.2838 18.0408 70.4614 18.4027C69.7374 18.7184 68.9749 19.2847 68.7334 20.3073C69.7103 19.7298 70.9749 20.6423 71.2263 22.1063L71.1676 22.1225C71.0348 23.1365 71.3312 24.2405 71.905 24.8692C71.9477 24.5855 72.0529 24.3149 72.213 24.077C72.3731 23.8391 72.5841 23.64 72.8306 23.494C73.2523 23.2163 73.7187 23.0146 74.0405 22.5374C74.422 21.9716 74.5189 21.1447 74.6704 20.3903C74.822 19.636 75.1095 18.8252 75.64 18.615Z" fill="#AECAA5"/>
<path d="M70.1717 27.2438C69.9012 27.6508 69.5398 27.9062 69.2155 28.2242C68.8412 28.5654 68.5956 29.0253 68.5201 29.5266C68.4791 29.8808 68.5426 30.2409 68.5338 30.5991C68.525 30.9572 68.4058 31.3603 68.1626 31.4494C67.7788 31.5883 67.4857 30.874 67.0912 30.8241C66.7776 30.785 66.4954 31.2791 66.5862 31.7077C66.677 32.1363 67.1038 32.3261 67.349 32.0463C67.5707 32.4191 67.4144 33.0952 67.0814 33.2097C67.0462 33.4445 67.0111 33.6784 66.9769 33.9132C66.1349 33.3232 65.2842 32.7234 64.5683 31.8594C63.772 30.9066 63.2781 29.7371 63.15 28.5011C63.0572 27.508 63.195 26.3719 62.7398 25.6077C62.3755 24.9962 61.7504 24.8611 61.1878 24.8993C61.0852 24.9061 60.9817 24.9179 60.8792 24.9306C61.2109 23.9323 61.6323 22.9661 62.1381 22.044C62.2526 21.9948 62.359 21.9285 62.4536 21.8473C62.9771 21.4021 63.2096 20.5009 63.6345 19.8776C63.6618 19.8375 63.6902 19.7983 63.7195 19.7602C64.1541 19.1917 64.7362 18.8991 65.2988 18.6271C66.5442 18.0214 67.8256 17.4078 69.1403 17.492L68.7662 17.5282C68.3296 18.7533 67.8927 19.9784 67.4554 21.2035C67.389 21.3913 67.322 21.5795 67.2542 21.7681C67.0061 22.4647 66.7502 23.2065 66.7883 23.9863C66.8108 24.4482 66.971 24.9414 67.2757 25.0999C67.56 25.2466 67.8706 25.0666 68.145 24.8885C68.2612 24.8141 68.3765 24.7398 68.4927 24.6644C68.9098 24.3953 69.3718 24.1194 69.8123 24.2994C70.2157 24.4638 70.5136 25.0128 70.5702 25.6048C70.6222 26.1802 70.482 26.7567 70.1717 27.2438Z" fill="#AECAA5"/>
<path d="M72.6522 35.6077C71.4341 34.8564 70.216 34.105 68.9979 33.3537L69.0186 33.3004C68.2613 33.5893 67.9468 34.938 68.072 36.0409C68.1972 37.1438 68.6216 38.1298 68.836 39.2044C69.1251 40.6751 69.0159 42.1964 68.52 43.6105C70.1217 41.8101 71.5391 39.8533 72.7512 37.7695C72.9205 37.5069 73.0495 37.2203 73.1339 36.9193C73.2233 36.5985 73.1914 36.256 73.0444 35.9573C72.9447 35.8099 72.8099 35.6898 72.6522 35.6077Z" fill="#AECAA5"/>
<path d="M67.8448 21.9385C67.7018 22.2462 67.6797 22.5966 67.7831 22.9198C67.9033 23.1802 68.1213 23.3825 68.3897 23.4826L69.0627 23.8168C69.2866 23.928 69.528 24.0403 69.7562 23.9488C70.0315 23.8385 70.2224 23.4061 70.173 23.0047C70.1205 22.5775 69.8517 22.2837 69.6031 22.0335C69.2553 21.6833 68.9074 21.3332 68.5596 20.983L68.3635 21.2236C68.1515 21.4308 67.9761 21.6725 67.8448 21.9385Z" fill="#AECAA5"/>
<path d="M91.5367 26.505C91.8395 26.5764 92.1423 26.6479 92.445 26.7193C92.3923 27.7438 91.8854 28.692 91.2056 29.0354C90.9223 29.1783 90.6068 29.2311 90.3724 29.4982C90.1605 29.7409 90.053 30.1186 89.9544 30.4797C89.7815 31.1098 89.6086 31.74 89.4357 32.3701C89.2502 33.0492 89.0118 33.8036 88.5293 34.0483C88.1152 34.2586 87.6415 34.0013 87.3231 33.5698C87.0047 33.1383 86.8103 32.558 86.6218 31.9924C86.6335 32.6089 86.3473 33.2136 85.942 33.4279C85.5357 33.6422 85.0414 33.4484 84.7699 32.97C84.5746 32.6265 84.4935 32.1735 84.302 31.8251C84.1106 31.4768 83.7092 31.2772 83.5002 31.604C83.3624 31.8212 83.38 32.1539 83.3116 32.4298C83.2772 32.613 83.1867 32.7809 83.0526 32.9102C82.9185 33.0394 82.7475 33.1236 82.5635 33.151C82.3942 33.1471 82.2275 33.1088 82.0736 33.0383C81.9196 32.9678 81.7815 32.8666 81.6678 32.741C81.0697 32.128 80.6803 31.3414 80.5553 30.4934C80.4706 30.0868 80.4813 29.6661 80.5866 29.2644C80.7067 28.8838 80.9968 28.5902 81.2849 28.6626C81.4744 28.2614 81.1003 27.7291 80.7634 27.7761C80.4254 27.823 80.1607 28.1861 79.8833 28.4649C79.6069 28.7438 79.2201 28.9464 78.9418 28.6694C78.948 28.7707 78.9138 28.8703 78.8467 28.9464C78.7796 29.0224 78.6851 29.0686 78.584 29.0749C78.574 29.0755 78.564 29.0757 78.554 29.0755C78.3689 29.0223 78.1969 28.931 78.049 28.8074C77.4112 28.4092 76.6015 28.6734 76.1483 29.4268C76.4316 28.2193 76.8467 26.8338 77.7169 26.55C78.0725 26.4336 78.4602 26.5294 78.7962 26.3279C79.3911 25.9707 79.5112 24.6214 78.9974 24.0646C79.0629 24.591 79.0502 25.2055 78.7728 25.5656C78.4954 25.9257 77.9133 25.6909 77.9484 25.1586C77.9405 25.2334 77.9092 25.3039 77.8589 25.3598C77.8086 25.4157 77.7419 25.4543 77.6684 25.4699C77.5949 25.4856 77.5183 25.4775 77.4497 25.4469C77.381 25.4163 77.3238 25.3647 77.2862 25.2995C77.1016 25.0177 77.1173 24.5568 77.2481 24.2202C77.3831 23.9153 77.5765 23.64 77.8176 23.41C78.2815 22.912 78.7523 22.408 79.2895 22.0949C79.8277 21.7818 80.4489 21.6761 80.988 21.9873C81.2723 22.1516 81.5223 22.4256 81.8124 22.5704C81.8805 22.6128 81.9564 22.6413 82.0355 22.6543C82.1147 22.6674 82.1957 22.6646 82.2738 22.6463C82.3519 22.628 82.4256 22.5944 82.4908 22.5475C82.556 22.5007 82.6113 22.4414 82.6536 22.3731L82.6536 22.3731C82.6568 22.3678 82.66 22.3625 82.6631 22.3571C82.879 21.9775 82.7774 21.4138 82.8575 20.9393C83.0011 20.1007 83.8381 19.7083 84.3021 20.2622C83.9553 20.1731 83.5969 20.5841 83.5539 21.0821C83.5099 21.5802 83.761 22.0832 84.097 22.2338C84.6615 22.4843 85.2143 21.8542 85.6412 21.271C86.0866 20.6604 86.5326 20.0502 86.9793 19.4402C87.0506 19.3364 87.1307 19.2388 87.2186 19.1486C87.3585 19.012 87.545 18.9338 87.7403 18.9298C87.9356 18.9258 88.1252 18.9963 88.2705 19.1271C88.7218 19.496 88.9337 20.2524 89.3039 20.7729C89.8411 21.5293 90.645 21.7133 91.3931 21.8601C91.9508 21.9687 92.5088 22.0779 93.0672 22.1878C93.4394 22.8815 93.7641 23.5998 94.0391 24.3376C93.0152 24.8054 92.1467 25.5576 91.5367 26.505Z" fill="#AECAA5"/>
<path d="M93.3397 38.2784C92.9213 39.1296 92.4346 39.9454 91.8844 40.7178C91.5328 40.5671 91.1548 40.8361 90.8256 41.0886C90.4818 41.3528 90.0686 41.6102 89.716 41.3694C89.3556 41.1229 89.2394 40.433 89.3537 39.886C89.485 39.3814 89.7147 38.9079 90.0296 38.4926C90.3226 38.0543 90.6361 37.5993 91.0434 37.429C91.4517 37.2587 91.9762 37.4994 92.0954 38.0807L92.3845 38.0709C92.2223 37.8478 92.3073 37.3859 92.5251 37.3047C92.7761 37.2098 92.994 37.5552 93.1424 37.8605C93.2088 37.9985 93.2762 38.1375 93.3397 38.2784Z" fill="#AECAA5"/>
<path d="M82.267 34.1452C81.6456 34.1844 81.1533 33.418 80.8262 32.664C80.4991 31.91 80.2007 31.0478 79.64 30.6641C79.3196 30.4448 78.9543 30.4147 78.6068 30.3084C78.4097 30.2585 78.2273 30.1623 78.0747 30.0277C77.9221 29.8932 77.8038 29.7241 77.7294 29.5345L77.3352 29.375C76.7838 29.6511 76.2788 30.0118 75.8386 30.4441C75.3354 30.9795 75.0221 31.6659 74.9467 32.3973C74.8714 33.1878 75.1495 34.0692 75.6691 34.3661C76.0796 34.6008 76.5576 34.4529 76.9734 34.6677C77.493 34.936 77.8015 35.7156 77.9182 36.4854C78.035 37.2551 78.0054 38.055 78.089 38.8335C78.1725 39.612 78.4027 40.422 78.8792 40.8209C79.4755 41.3202 80.3504 40.9053 80.6179 39.9966C80.7491 39.5508 80.7446 39.0478 80.8428 38.5851C81.0156 37.7702 81.482 37.1657 81.8519 36.4972C82.2218 35.8288 82.513 34.921 82.267 34.1452Z" fill="#AECAA5"/>
<path d="M76.1263 26.138C76.1843 26.1914 76.2383 26.249 76.2881 26.3101C76.3397 26.3991 76.366 26.5005 76.3642 26.6034C76.3625 26.7063 76.3327 26.8068 76.2782 26.894C76.3531 26.8897 76.4262 26.8699 76.4931 26.8359C76.5599 26.8019 76.619 26.7543 76.6665 26.6963C76.7799 26.5669 76.8797 26.4261 76.9642 26.2761C77.004 26.2248 77.0324 26.1655 77.0475 26.1023C77.0627 26.0391 77.0642 25.9734 77.052 25.9096C77.0227 25.8257 76.9533 25.7899 76.9046 25.7268C76.8371 25.6033 76.7911 25.4693 76.7684 25.3305C76.7414 25.2003 76.6787 25.0803 76.5874 24.9839C76.4961 24.8874 76.3797 24.8184 76.2514 24.7846L76.2825 24.7906C76.2295 24.8221 76.1877 24.8694 76.1628 24.926C76.138 24.9825 76.1315 25.0454 76.1442 25.1058C76.163 25.2279 76.2413 25.3293 76.2335 25.4538C76.2223 25.6329 76.0437 25.7169 76.0327 25.896C76.0309 25.9859 76.0646 26.0728 76.1263 26.138Z" fill="#AECAA5"/>
<path d="M75.0616 23.0958L75.0645 23.0952C75.0838 23.0775 75.1018 23.0582 75.1182 23.0377L75.0616 23.0958Z" fill="#AECAA5"/>
<path d="M75.248 23.9354C75.3226 23.8698 75.3778 23.7849 75.4076 23.69C75.4373 23.5951 75.4405 23.4938 75.4167 23.3972C75.3715 23.1936 75.2117 23.0567 75.0644 23.0943C75.0216 23.1377 74.9685 23.1695 74.9101 23.1868C74.8517 23.204 74.7899 23.2061 74.7305 23.1928C74.6394 23.1693 74.5394 23.1087 74.4603 23.1775C74.4151 23.2289 74.3835 23.2908 74.3683 23.3575C74.3391 23.4475 74.3098 23.5374 74.2805 23.6274C74.2667 23.6596 74.263 23.6953 74.2702 23.7296C74.2758 23.7434 74.2848 23.7555 74.2964 23.7647C74.308 23.774 74.3218 23.7801 74.3365 23.7824L74.863 23.9379C74.9234 23.9658 74.9892 23.9801 75.0557 23.9796C75.1223 23.9792 75.1879 23.9641 75.248 23.9354Z" fill="#AECAA5"/>
<path d="M88.4965 35.5403C88.4154 35.4073 88.3343 35.2742 88.2532 35.1412C88.1735 34.9871 88.0646 34.8501 87.9325 34.7378C87.8747 34.6893 87.8001 34.6658 87.725 34.6724C87.65 34.6791 87.5806 34.7153 87.5322 34.7732L87.5322 34.7732L87.528 34.7784L87.5378 34.8544C87.7551 35.0877 87.9031 35.377 87.9653 35.6899C87.9838 35.8259 87.9773 35.9666 87.9935 36.1032C87.9953 36.1665 88.0094 36.2289 88.0352 36.2867C88.061 36.3446 88.0979 36.3967 88.1438 36.4403C88.2716 36.5258 88.4216 36.3997 88.5125 36.2459C88.5938 36.1196 88.6302 35.9695 88.616 35.8199C88.5957 35.7195 88.5551 35.6243 88.4965 35.5403Z" fill="#AECAA5"/>
<path d="M89.7691 35.7135C89.7846 35.589 89.7745 35.4625 89.7394 35.342C89.7336 35.179 89.7768 35.0179 89.8633 34.8797C89.9492 34.7493 90.0143 34.6063 90.0563 34.4558C90.074 34.3872 90.0708 34.3149 90.047 34.2482C90.0202 34.1878 89.9552 34.1602 89.9179 34.208L89.9977 34.2596C89.8899 34.2403 89.7791 34.2457 89.6737 34.2753C89.6135 34.2983 89.5598 34.3356 89.5171 34.3839C89.4743 34.4321 89.4438 34.49 89.4281 34.5526C89.415 34.6502 89.3934 34.7464 89.3637 34.8403C89.3161 34.9384 89.2239 34.971 89.166 35.0571C89.1265 35.1334 89.1066 35.2183 89.108 35.3043C89.1094 35.3902 89.1321 35.4744 89.1741 35.5494C89.2469 35.672 89.3625 35.7631 89.4986 35.805C89.5961 35.8401 89.7245 35.8419 89.7691 35.7135Z" fill="#AECAA5"/>
<path d="M92.0353 36.3985C92.0705 36.4904 92.1178 36.5772 92.1757 36.6567C92.2842 36.7662 92.4317 36.6989 92.5633 36.6723C92.6827 36.6534 92.805 36.6672 92.9173 36.7123C93.0295 36.7574 93.1275 36.8321 93.2008 36.9284C93.1497 36.6734 93.0383 36.4344 92.8759 36.2314C92.7135 36.0285 92.5049 35.8675 92.2676 35.7621C91.9591 35.6551 91.6341 35.6042 91.3078 35.6117L91.2521 35.626C91.3941 36.0402 91.8401 36.0309 92.0353 36.3985Z" fill="#AECAA5"/>
<path d="M82.437 37.2467L82.4378 37.2485L82.4541 37.2161L82.437 37.2467Z" fill="#AECAA5"/>
<path d="M82.0931 37.9123C82.0181 38.0487 81.9536 38.1906 81.9002 38.3368C81.8295 38.5736 81.7827 38.8169 81.7604 39.0631C81.743 39.203 81.7376 39.3818 81.8251 39.45C81.8503 39.4667 81.8806 39.4737 81.9105 39.4696C81.9404 39.4656 81.9678 39.4507 81.9876 39.4279C82.0362 39.3764 82.076 39.3171 82.1053 39.2526C82.2774 38.9557 82.411 38.6381 82.5028 38.3074C82.5987 37.9566 82.5758 37.5838 82.4377 37.2474C82.3229 37.4691 82.208 37.6907 82.0931 37.9123Z" fill="#AECAA5"/>
<path d="M78.7765 20.1509C78.8311 20.2044 78.9001 20.2407 78.9751 20.2554C79.05 20.27 79.1276 20.2624 79.1983 20.2334C79.3447 20.1693 79.4789 20.0804 79.5952 19.9708C79.6915 19.8994 79.7732 19.8101 79.8358 19.7078C79.8703 19.6467 79.8924 19.5793 79.9009 19.5096C79.9093 19.4399 79.9039 19.3692 79.885 19.3016C79.8581 19.2368 79.8152 19.1799 79.7603 19.1364C79.7053 19.0929 79.6402 19.0641 79.5711 19.0528C79.3763 18.9949 79.1815 18.937 78.9867 18.8792L79.1276 18.7519C78.9826 18.674 78.8223 18.8186 78.7317 18.9977C78.6735 19.1147 78.633 19.2396 78.6114 19.3684C78.5806 19.5031 78.5794 19.6428 78.6079 19.7779C78.6364 19.913 78.6939 20.0403 78.7765 20.1509Z" fill="#AECAA5"/>
<path d="M82.2155 18.9943C82.2704 19.055 82.3463 19.0924 82.4278 19.099C82.5092 19.1057 82.5901 19.081 82.6541 19.0301C82.7091 18.9886 82.7549 18.9361 82.7883 18.8758C82.8217 18.8154 82.8421 18.7488 82.8481 18.68C82.8619 18.5265 82.7861 18.3559 82.6779 18.3427L82.7027 18.199C82.4942 18.1612 82.2377 18.1537 82.126 18.4073C82.0884 18.5044 82.0768 18.6098 82.0925 18.7128C82.1082 18.8158 82.1506 18.9129 82.2155 18.9943Z" fill="#AECAA5"/>
<path d="M68.0452 29.3328C68.7634 29.3328 69.3455 28.5507 69.3455 27.586C69.3455 26.6213 68.7634 25.8393 68.0452 25.8393C67.3271 25.8393 66.745 26.6213 66.745 27.586C66.745 28.5507 67.3271 29.3328 68.0452 29.3328Z" fill="#E6E6E6"/>
<path d="M91.8063 50.962C92.4271 50.7964 92.8371 50.3114 92.722 49.8788C92.607 49.4462 92.0106 49.2298 91.3898 49.3954C90.7691 49.561 90.3591 50.046 90.4741 50.4786C90.5891 50.9112 91.1855 51.1276 91.8063 50.962Z" fill="#E6E6E6"/>
<path d="M84.2034 51.1028C84.8242 50.9372 85.2342 50.4523 85.1191 50.0196C85.0041 49.587 84.4077 49.3706 83.7869 49.5362C83.1662 49.7018 82.7562 50.1868 82.8712 50.6194C82.9862 51.052 83.5827 51.2685 84.2034 51.1028Z" fill="#E6E6E6"/>
<path d="M93.157 44.6247C93.7778 44.4591 94.1878 43.9741 94.0728 43.5415C93.9578 43.1089 93.3613 42.8924 92.7406 43.0581C92.1198 43.2237 91.7098 43.7086 91.8248 44.1413C91.9398 44.5739 92.5363 44.7903 93.157 44.6247Z" fill="#E6E6E6"/>
<path d="M95.3996 41.9308C95.6799 41.896 95.8666 41.5406 95.8166 41.1369C95.7667 40.7333 95.499 40.4343 95.2187 40.4691C94.9384 40.5039 94.7517 40.8594 94.8016 41.263C94.8516 41.6667 95.1193 41.9656 95.3996 41.9308Z" fill="#E6E6E6"/>
<path d="M95.9672 37.1497C96.2475 37.1149 96.4342 36.7594 96.3842 36.3558C96.3343 35.9522 96.0666 35.6532 95.7863 35.688C95.506 35.7228 95.3193 36.0782 95.3693 36.4819C95.4192 36.8855 95.6869 37.1845 95.9672 37.1497Z" fill="#E6E6E6"/>
<path d="M88.303 46.3408C88.5833 46.306 88.77 45.9505 88.7201 45.5469C88.6701 45.1433 88.4024 44.8443 88.1221 44.8791C87.8418 44.9139 87.6551 45.2693 87.7051 45.673C87.755 46.0766 88.0227 46.3756 88.303 46.3408Z" fill="#E6E6E6"/>
<path d="M92.147 47.7347C92.4273 47.6998 92.614 47.3444 92.5641 46.9408C92.5141 46.5371 92.2464 46.2381 91.9661 46.273C91.6858 46.3078 91.4991 46.6632 91.5491 47.0668C91.599 47.4705 91.8667 47.7695 92.147 47.7347Z" fill="#E6E6E6"/>
<path d="M87.4798 51.6826C87.7601 51.6478 87.9468 51.2924 87.8968 50.8887C87.8469 50.4851 87.5792 50.1861 87.2989 50.2209C87.0186 50.2557 86.8319 50.6112 86.8818 51.0148C86.9318 51.4184 87.1995 51.7174 87.4798 51.6826Z" fill="#E6E6E6"/>
<path d="M54.0136 44.5654C54.6343 44.3998 55.0443 43.9148 54.9293 43.4822C54.8143 43.0496 54.2179 42.8332 53.5971 42.9988C52.9764 43.1644 52.5664 43.6493 52.6814 44.082C52.7964 44.5146 53.3928 44.731 54.0136 44.5654Z" fill="#E6E6E6"/>
<path d="M46.4103 44.7065C47.0311 44.5409 47.4411 44.0559 47.3261 43.6233C47.211 43.1907 46.6146 42.9743 45.9938 43.1399C45.3731 43.3055 44.9631 43.7905 45.0781 44.2231C45.1931 44.6557 45.7896 44.8721 46.4103 44.7065Z" fill="#E6E6E6"/>
<path d="M55.3645 38.2279C55.9853 38.0623 56.3953 37.5773 56.2803 37.1447C56.1653 36.7121 55.5688 36.4957 54.9481 36.6613C54.3273 36.8269 53.9173 37.3119 54.0323 37.7445C54.1473 38.1771 54.7438 38.3935 55.3645 38.2279Z" fill="#E6E6E6"/>
<path d="M57.6068 35.5342C57.8871 35.4994 58.0738 35.144 58.0239 34.7403C57.9739 34.3367 57.7062 34.0377 57.4259 34.0725C57.1457 34.1073 56.959 34.4628 57.0089 34.8664C57.0589 35.27 57.3266 35.569 57.6068 35.5342Z" fill="#E6E6E6"/>
<path d="M58.1745 30.7531C58.4548 30.7183 58.6415 30.3628 58.5915 29.9592C58.5416 29.5556 58.2739 29.2566 57.9936 29.2914C57.7133 29.3262 57.5266 29.6816 57.5765 30.0853C57.6265 30.4889 57.8942 30.7879 58.1745 30.7531Z" fill="#E6E6E6"/>
<path d="M50.5103 39.9442C50.7906 39.9094 50.9773 39.5539 50.9273 39.1503C50.8774 38.7467 50.6097 38.4477 50.3294 38.4825C50.0491 38.5173 49.8624 38.8727 49.9123 39.2764C49.9623 39.68 50.23 39.979 50.5103 39.9442Z" fill="#E6E6E6"/>
<path d="M54.3543 41.3381C54.6346 41.3032 54.8213 40.9478 54.7713 40.5442C54.7214 40.1405 54.4537 39.8415 54.1734 39.8764C53.8931 39.9112 53.7064 40.2666 53.7563 40.6702C53.8063 41.0739 54.074 41.3729 54.3543 41.3381Z" fill="#E6E6E6"/>
<path d="M49.6869 45.2861C49.9672 45.2512 50.1539 44.8958 50.104 44.4922C50.054 44.0885 49.7863 43.7895 49.506 43.8244C49.2257 43.8592 49.039 44.2146 49.089 44.6182C49.1389 45.0219 49.4066 45.3209 49.6869 45.2861Z" fill="#E6E6E6"/>
<path d="M100.207 15.2768C100.828 15.1111 101.238 14.6262 101.123 14.1936C101.008 13.761 100.411 13.5445 99.7905 13.7101C99.1697 13.8758 98.7597 14.3607 98.8747 14.7933C98.9897 15.2259 99.5862 15.4424 100.207 15.2768Z" fill="#E6E6E6"/>
<path d="M92.6037 15.4179C93.2244 15.2522 93.6344 14.7673 93.5194 14.3347C93.4044 13.9021 92.808 13.6856 92.1872 13.8512C91.5665 14.0169 91.1565 14.5018 91.2715 14.9344C91.3865 15.367 91.9829 15.5835 92.6037 15.4179Z" fill="#E6E6E6"/>
<path d="M101.558 8.93908C102.179 8.77346 102.589 8.2885 102.474 7.85589C102.359 7.42327 101.762 7.20683 101.141 7.37245C100.521 7.53807 100.111 8.02303 100.226 8.45565C100.341 8.88826 100.937 9.1047 101.558 8.93908Z" fill="#E6E6E6"/>
<path d="M103.8 6.24559C104.08 6.21077 104.267 5.85534 104.217 5.4517C104.167 5.04807 103.9 4.74908 103.619 4.78389C103.339 4.8187 103.152 5.17414 103.202 5.57777C103.252 5.98141 103.52 6.2804 103.8 6.24559Z" fill="#E6E6E6"/>
<path d="M104.368 1.46446C104.648 1.42964 104.835 1.07421 104.785 0.670573C104.735 0.266936 104.467 -0.0320537 104.187 0.00275987C103.907 0.0375734 103.72 0.393007 103.77 0.796644C103.82 1.20028 104.088 1.49927 104.368 1.46446Z" fill="#E6E6E6"/>
<path d="M96.7036 10.6555C96.9839 10.6207 97.1707 10.2653 97.1207 9.86165C97.0707 9.45801 96.803 9.15902 96.5227 9.19383C96.2425 9.22865 96.0558 9.58408 96.1057 9.98772C96.1557 10.3914 96.4234 10.6903 96.7036 10.6555Z" fill="#E6E6E6"/>
<path d="M100.548 12.0494C100.828 12.0146 101.015 11.6592 100.965 11.2555C100.915 10.8519 100.647 10.5529 100.367 10.5877C100.086 10.6225 99.8997 10.978 99.9497 11.3816C99.9997 11.7852 100.267 12.0842 100.548 12.0494Z" fill="#E6E6E6"/>
<path d="M95.8803 15.9974C96.1606 15.9626 96.3473 15.6071 96.2973 15.2035C96.2474 14.7999 95.9797 14.5009 95.6994 14.5357C95.4191 14.5705 95.2324 14.9259 95.2823 15.3296C95.3323 15.7332 95.6 16.0322 95.8803 15.9974Z" fill="#E6E6E6"/>
<path d="M51.7291 45.649C50.4852 45.649 49.6764 45.3394 49.3185 44.7237C48.6126 43.5098 49.7948 41.3798 52.8322 38.3929L53.0873 38.6533C50.2659 41.4279 49.0392 43.5185 49.6332 44.5401C50.009 45.1863 51.1275 45.4179 52.8685 45.2095C54.5968 45.0029 56.8872 44.3868 59.676 43.3785C65.4176 41.3026 72.6209 37.801 79.959 33.5187C87.297 29.2366 93.8906 24.6866 98.5255 20.707C99.4158 19.9425 100.224 19.2071 100.927 18.5212C101.85 17.6429 102.702 16.6921 103.474 15.6779C104.513 14.2637 104.864 13.1746 104.488 12.5284C103.861 11.449 101.224 11.5505 97.0634 12.8146L96.9577 12.4654C101.421 11.1093 104.061 11.0687 104.803 12.3447C105.264 13.1376 104.915 14.3318 103.767 15.8943C102.983 16.9246 102.118 17.8904 101.181 18.7827C100.472 19.4739 99.6586 20.2145 98.7626 20.9841C94.1115 24.9776 87.4987 29.5411 80.1423 33.834C72.7858 38.1271 65.5612 41.6386 59.7997 43.7217C56.9849 44.7394 54.6674 45.3619 52.9116 45.5718C52.5193 45.6209 52.1245 45.6466 51.7291 45.649Z" fill="#3F3D56"/>
</g>
<defs>
<clipPath id="clip0_1_682">
<rect width="105" height="83" fill="white"/>
</clipPath>
</defs>
</svg>
