<svg width="75" height="67" viewBox="0 0 75 67" fill="none" xmlns="http://www.w3.org/2000/svg">
<path d="M73 57H60V58H73V57Z" fill="#F2F2F2"/>
<path d="M33 63H11V62.8406H32.8417V55.1073H12.8495L11.8783 53.069L12.021 53L12.9491 54.9478H33V63Z" fill="#2F2E41"/>
<path d="M13.5 67C14.3284 67 15 66.1046 15 65C15 63.8954 14.3284 63 13.5 63C12.6716 63 12 63.8954 12 65C12 66.1046 12.6716 67 13.5 67Z" fill="#3F3D56"/>
<path d="M30 67C31.1046 67 32 66.1046 32 65C32 63.8954 31.1046 63 30 63C28.8954 63 28 63.8954 28 65C28 66.1046 28.8954 67 30 67Z" fill="#3F3D56"/>
<path d="M49 32C49.5523 32 50 31.5523 50 31C50 30.4477 49.5523 30 49 30C48.4477 30 48 30.4477 48 31C48 31.5523 48.4477 32 49 32Z" fill="#3F3D56"/>
<path d="M34.5809 53H10.262L5 36H40L39.9682 36.1L34.5809 53ZM10.3772 52.8462H34.4667L39.7878 36.1538H5.21038L10.3772 52.8462Z" fill="#2F2E41"/>
<path d="M33.2003 52H11.6607L7 37H38L37.9718 37.0883L33.2003 52Z" fill="#F2F2F2"/>
<path d="M41.1505 34L41 33.9694L42.0268 31H48V31.1194H42.1466L41.1505 34Z" fill="#2F2E41"/>
<path d="M29.781 36.0376L28.6482 52.746L28.8057 52.756L29.9384 36.0476L29.781 36.0376Z" fill="#2F2E41"/>
<path d="M15.4964 36.0374L15.3389 36.0474L16.4651 52.7562L16.6225 52.7462L15.4964 36.0374Z" fill="#2F2E41"/>
<path d="M54 5.25974C54 5.25974 55.4054 9.05844 54.5405 9.64286C53.6757 10.2273 57.4595 15 57.4595 15L62 13.8312L59.5135 9.83766C59.5135 9.83766 59.1892 5.84416 59.1892 5.25974C59.1892 4.67532 54 5.25974 54 5.25974Z" fill="#A0616A"/>
<path opacity="0.1" d="M54 5.25974C54 5.25974 55.4054 9.05844 54.5405 9.64286C53.6757 10.2273 57.4595 15 57.4595 15L62 13.8312L59.5135 9.83766C59.5135 9.83766 59.1892 5.84416 59.1892 5.25974C59.1892 4.67532 54 5.25974 54 5.25974Z" fill="black"/>
<path d="M52.1687 31.832C52.1687 31.832 51.7891 36.6324 52.1687 39.1286C52.5484 41.6248 53.1178 48.5374 53.1178 48.5374C53.1178 48.5374 53.1178 61.5946 55.2058 61.7866C57.2938 61.9786 58.8123 62.1706 59.0022 61.4025C59.192 60.6345 58.0531 60.2504 58.6225 59.8664C59.192 59.4824 59.3818 58.1383 58.6225 56.6021C57.8633 55.066 58.6225 39.5126 58.6225 39.5126L62.2291 49.3055C62.2291 49.3055 62.6087 57.3702 62.9883 58.5223C63.368 59.6744 62.6087 61.7866 63.9374 61.9786C65.2661 62.1706 66.7847 61.0185 67.544 60.6345C68.3032 60.2504 66.4051 60.2504 66.7847 60.0584C67.1643 59.8664 68.3032 59.2903 67.9236 59.0983C67.544 58.9063 67.1643 49.6895 67.1643 49.6895C67.1643 49.6895 66.1203 30.0078 64.7916 29.2398C63.4629 28.4717 62.6087 29.7946 62.6087 29.7946L52.1687 31.832Z" fill="#2F2E41"/>
<path d="M55.8 61V62.5707C55.8 62.5707 54 66.8405 55.8 66.8405C57.6 66.8405 59 67.283 59 66.6939V61.3927L55.8 61Z" fill="#2F2E41"/>
<path d="M67.2 61V62.5707C67.2 62.5707 69 66.8405 67.2 66.8405C65.4 66.8405 64 67.283 64 66.6939V61.3927L67.2 61Z" fill="#2F2E41"/>
<path d="M56.5 8C58.433 8 60 6.433 60 4.5C60 2.567 58.433 1 56.5 1C54.567 1 53 2.567 53 4.5C53 6.433 54.567 8 56.5 8Z" fill="#A0616A"/>
<path d="M55.4324 11C55.4324 11 56.5135 13.8874 58.2432 13.31L59.973 12.7325L63 31.2121C63 31.2121 60.6216 34.292 57.1622 32.3671C53.7027 30.4421 55.4324 11 55.4324 11Z" fill="#AECAA5"/>
<path d="M59 10.7743L59.8077 9C59.8077 9 64.5641 11.3346 65.2821 12.0817C66 12.8288 66 13.9494 66 13.9494L64.7436 18.6187C64.7436 18.6187 65.1026 28.891 65.1026 29.2646C65.1026 29.6381 66.359 31.6926 65.4615 30.9455C64.5641 30.1984 64.3846 29.4514 63.6667 30.572C62.9487 31.6926 61.3333 33 61.3333 33L59 10.7743Z" fill="#3F3D56"/>
<path d="M65.3401 24L64.7701 29.4505C64.7701 29.4505 61.3502 32.565 62.1102 32.7597C62.8702 32.9543 63.2502 32.1757 63.2502 32.1757C63.2502 32.1757 64.5801 33.5383 65.3401 32.7597C66.1001 31.981 68 24.584 68 24.584L65.3401 24Z" fill="#A0616A"/>
<path d="M57.0203 0.010885C56.252 -0.0146254 55.43 -0.0272445 54.7823 0.357304C54.4842 0.550293 54.2229 0.787977 54.0088 1.06063C53.378 1.80141 52.8329 2.73349 53.0672 3.6526L53.3394 3.554C53.3394 3.79934 53.2807 4.04161 53.1675 4.26328C53.2058 4.15976 53.3342 4.32711 53.2998 4.43182L53 5.34544C53.4928 5.17762 54.1059 5.51742 54.1809 6C54.2152 4.93882 54.3337 3.72198 55.2604 3.10061C55.7277 2.78726 56.3192 2.6916 56.8882 2.60665C57.4132 2.52829 57.9635 2.45356 58.4664 2.6141C58.9692 2.77464 59.3974 3.25234 59.2834 3.73477C59.5153 3.66058 59.7746 3.81067 59.8892 4.01207C60.0037 4.21347 60.0097 4.45104 60.0132 4.67881C60.2603 4.84106 60.5416 4.51888 60.6423 4.25378C60.8787 3.63152 61.0889 2.96914 60.9615 2.31995C60.8342 1.67076 60.2647 1.05037 59.5543 1.04816C59.6405 0.960187 59.6865 0.844506 59.6826 0.725587L59.0971 0.679632C59.2457 0.660081 59.3824 0.593132 59.4838 0.490251C59.2487 0.730539 57.4004 0.0235081 57.0203 0.010885Z" fill="#2F2E41"/>
<path d="M56.6528 10.4351C56.6528 10.4351 55.1345 8.91074 54.588 9.00412C54.0416 9.0975 53.2955 10.4351 53.2955 10.4351C53.2955 10.4351 48.8192 11.9639 49.0057 13.4926C49.1922 15.0213 51.2439 22.4739 51.2439 22.4739C51.2439 22.4739 52.9225 31.4551 51.4304 32.4106C49.9382 33.366 58.518 35.8502 58.7045 34.7037C58.891 33.5571 59.264 22.0917 58.7045 20.3719C58.1449 18.652 56.6528 10.4351 56.6528 10.4351Z" fill="#3F3D56"/>
<path d="M64 13H66.5471C66.5471 13 68.3259 20.6 68.5319 21.4C68.7379 22.2 69.1499 26 68.9439 26C68.7379 26 64.618 25.2 64.618 25.8L64 13Z" fill="#3F3D56"/>
<path d="M64 31H54.7087C53.802 26.8467 53.7263 22.8339 54.7087 19H64C62.5006 22.765 62.4069 26.7503 64 31Z" fill="#F2F2F2"/>
<path d="M50 25.7087L53.0732 26.8635C53.0732 26.8635 59 27.6334 59 25.5162C59 23.3991 53.0732 24.5539 53.0732 24.5539L51.0974 24L50 25.7087Z" fill="#A0616A"/>
<path d="M50.9244 12L48.7733 12.5625L47.16 22.5C47.16 22.5 46.6222 25.125 47.5185 25.3125C48.4148 25.5 50.9244 27 50.9244 27C50.9244 27 51.283 24.1875 52 24.1875L50.2074 22.6875L51.283 16.125L50.9244 12Z" fill="#3F3D56"/>
</svg>
