<svg width="320" height="295" viewBox="0 0 320 295" fill="none" xmlns="http://www.w3.org/2000/svg">
<g clip-path="url(#clip0_1_493)">
<path d="M233.007 265.291L228.685 265.851L224.389 248.859L230.768 248.032L233.007 265.291Z" fill="#FFB6B6"/>
<path d="M218.186 267.111C218.082 267.363 218.109 268.129 218.145 268.402C218.253 269.241 218.998 269.836 219.809 269.731L233.193 267.994C233.746 267.922 234.133 267.4 234.059 266.828L233.984 266.251C233.984 266.251 234.421 264.431 232.781 262.471C232.781 262.471 231.304 264.364 228.432 262.072L227.504 260.768L222.631 265.561L219.685 266.332C219.041 266.5 218.447 266.479 218.186 267.111L218.186 267.111L218.186 267.111Z" fill="#2F2E41"/>
<path d="M277.904 253.773L274.19 256.103L263.605 242.319L269.086 238.881L277.904 253.773Z" fill="#FFB6B6"/>
<path d="M265.13 261.669C265.134 261.944 265.46 262.636 265.599 262.871C266.028 263.595 266.94 263.828 267.636 263.391L279.135 256.174C279.61 255.877 279.758 255.235 279.466 254.741L279.171 254.243C279.171 254.243 278.854 252.39 276.591 251.281C276.591 251.281 275.99 253.638 272.476 252.742L271.119 251.936L268.567 258.38L266.188 260.325C265.668 260.75 265.119 260.98 265.13 261.669L265.13 261.669Z" fill="#2F2E41"/>
<path d="M209.6 158.515L206.842 167.368L224.628 253.248L232.797 252.188L228.773 194.862L265.474 247.947L275.495 246.647L255.098 208.032L237.857 156.466L209.6 158.515Z" fill="#2F2E41"/>
<path d="M223.222 102.267L213.09 103.582L210.157 110.101L202.313 115.339L207.514 141.137L209.063 160.238L210.311 160.038C219.218 158.607 228.351 158.953 237.099 161.336C239.343 161.947 241.639 162.153 243.496 161.406C243.496 161.406 242.375 158.482 241.548 157.822C240.722 157.162 240.276 156.586 240.583 156.096C240.89 155.606 241.57 155.134 240.743 154.474C239.916 153.814 239.793 152.863 239.793 152.863L235.429 136.364L236.717 112.026L226.921 107.926L223.222 102.267L223.222 102.267Z" fill="#AECAA5"/>
<path d="M244.905 132.921L247.518 155.222L244.742 175.765L240.25 174.668L239.789 156.229L236.344 131.641L244.905 132.921Z" fill="#FFB6B6"/>
<path d="M245.139 178.968C245.271 176.049 244.018 173.604 242.341 173.508C240.665 173.412 239.199 175.701 239.067 178.62C238.935 181.539 240.188 183.983 241.865 184.08C243.542 184.176 245.008 181.887 245.139 178.968Z" fill="#FFB6B6"/>
<path d="M234.384 111.178C234.384 111.178 240.547 111.363 241.322 116.716C242.097 122.07 249.054 129.992 246.291 137.256L237.012 139.995L229.412 121.414L233.921 110.47" fill="#AECAA5"/>
<path d="M209.266 133.558L199.629 153.576L186.394 169.075L183.199 165.614L192.596 150.027L202.747 127.637L209.266 133.558Z" fill="#FFB6B6"/>
<path d="M185.03 171.962C186.691 169.611 186.935 166.869 185.576 165.838C184.216 164.807 181.769 165.877 180.108 168.228C178.448 170.579 178.204 173.321 179.563 174.352C180.922 175.383 183.37 174.313 185.03 171.962Z" fill="#FFB6B6"/>
<path d="M211.957 109.516C211.957 109.516 217.042 113.168 214.852 118.057C212.663 122.947 214.309 133.478 208.131 137.948L198.875 134.958C198.644 127.422 198.072 119.652 202.345 115.203L211.944 108.666" fill="#AECAA5"/>
<path d="M216.382 101.573C221.389 100.924 224.903 96.1944 224.23 91.0104C223.557 85.8263 218.953 82.1505 213.946 82.8003C208.939 83.45 205.425 88.1793 206.098 93.3633C206.77 98.5474 211.375 102.223 216.382 101.573Z" fill="#FFB6B6"/>
<path d="M222.823 99.0352C223.334 99.0586 223.758 97.7293 224.16 96.436C225.001 93.7287 225.536 92.0077 225.295 89.7044C225.089 87.7413 224.63 88.323 223.555 84.0388C223.2 82.6258 220.833 82.9358 220.263 82.317C219.299 81.2717 220.487 80.6349 218.372 80.2064C214.41 79.4036 212.956 81.6379 210.569 82.1239C210.509 82.1362 209.471 83.5004 208.813 83.6495C207.658 83.9107 205.948 83.941 204.953 82.1956C204.022 80.5637 204.208 85.6612 204.92 86.2026C205.525 86.6622 206.623 87.8705 206.659 87.964C206.7 88.0699 204.142 85.8054 203.907 86.9059C203.738 87.6979 205.085 91.4848 205.785 91.543C206.369 91.5916 207.508 89.4702 207.298 90.307C206.809 92.2475 211.339 92.8575 216.097 88.4721C216.266 88.3165 216.118 88.5489 216.977 90.0907C218.06 92.0352 218.259 92.1223 218.318 92.689C218.446 93.9156 217.606 94.3906 217.969 95.16C218.263 95.7832 219.149 96.1803 219.748 95.9689C220.423 95.7303 220.427 94.825 220.932 94.7756C221.364 94.7333 221.963 95.3386 222.096 96.0107C222.377 97.4265 220.386 98.0843 220.278 100.059C220.218 101.173 222.354 99.0138 222.823 99.0352Z" fill="#2F2E41"/>
<path d="M172.84 276.26L94.9368 286.369C83.2523 287.886 72.469 279.277 70.8992 267.18L43.2315 53.964C41.6617 41.8667 49.8907 30.7912 61.5753 29.2749L139.479 19.1659C151.163 17.6497 161.946 26.2581 163.516 38.3554C176.077 123.788 190.992 219.349 191.184 251.571C192.753 263.669 184.524 274.744 172.84 276.26Z" fill="#3F3D56"/>
<path d="M171.933 94.7028C171.438 94.767 171.09 95.2355 171.157 95.7474L175.011 125.448C175.077 125.96 175.533 126.324 176.028 126.26C176.523 126.195 176.871 125.727 176.805 125.215L172.95 95.5146C172.884 95.0027 172.428 94.6386 171.933 94.7028Z" fill="#3F3D56"/>
<path d="M161.499 38.6173L189.166 251.829C190.533 262.359 183.735 271.999 173.812 273.966L173.808 273.967C173.661 273.995 173.514 274.024 173.362 274.048C173.1 274.096 172.836 274.135 172.567 274.17C172.567 274.17 171.571 274.224 169.751 274.319C167.913 274.415 165.237 274.55 161.898 274.705C160.897 274.755 159.842 274.802 158.727 274.853C156.506 274.952 154.068 275.061 151.452 275.164C150.41 275.21 149.33 275.251 148.228 275.295C142.597 275.521 136.287 275.75 129.626 275.944C128.5 275.981 127.365 276.015 126.22 276.046C125.92 276.052 73.2387 269.402 72.916 266.914L45.2488 53.7024C43.8258 42.7364 51.2563 32.7357 61.8481 31.3612L73.296 29.8757C75.1248 29.6384 76.7865 30.9234 77.1885 32.7918C77.2182 32.9153 77.2479 33.0389 77.2866 33.1613C77.8646 35.0163 79.7171 36.1207 81.5817 35.8788L121.82 30.6572C123.685 30.4153 125.194 28.8746 125.28 26.9335C125.286 26.8053 125.283 26.6782 125.28 26.5512C125.192 24.6421 126.471 22.9755 128.3 22.7382L139.748 21.2527C150.339 19.8783 160.076 27.6514 161.499 38.6173Z" fill="white"/>
<path d="M47.2235 88.2352C46.7288 88.2994 46.3805 88.7679 46.4469 89.2797L47.4105 96.7048C47.4769 97.2167 47.9332 97.5808 48.4278 97.5166C48.9225 97.4524 49.2708 96.9839 49.2044 96.472L48.2409 89.0469C48.1744 88.5351 47.7181 88.171 47.2235 88.2352Z" fill="#3F3D56"/>
<path d="M50.114 110.511C49.6193 110.575 49.2711 111.043 49.3375 111.555L51.2043 125.941C51.2707 126.453 51.727 126.817 52.2217 126.753C52.7164 126.689 53.0646 126.22 52.9982 125.708L51.1314 111.322C51.065 110.81 50.6087 110.446 50.114 110.511Z" fill="#3F3D56"/>
<path d="M52.7637 130.93C52.269 130.994 51.9207 131.462 51.9871 131.974L53.8539 146.36C53.9204 146.872 54.3767 147.236 54.8713 147.172C55.366 147.108 55.7143 146.639 55.6478 146.127L53.781 131.741C53.7146 131.229 53.2583 130.865 52.7637 130.93Z" fill="#3F3D56"/>
<path d="M73.4057 33.1665L56.2616 35.3912C56.1685 35.4033 56.1032 35.4912 56.1157 35.5875L56.3715 37.559C56.384 37.6553 56.4696 37.7236 56.5627 37.7115L73.7068 35.4868C73.7999 35.4748 73.8652 35.3869 73.8527 35.2905L73.5969 33.3191C73.5844 33.2227 73.4988 33.1544 73.4057 33.1665Z" fill="#E6E6E6"/>
<path d="M131.855 27.9413C132.845 27.8128 133.54 26.8775 133.407 25.8524C133.274 24.8272 132.364 24.1002 131.373 24.2287C130.383 24.3572 129.688 25.2925 129.821 26.3177C129.954 27.3429 130.865 28.0698 131.855 27.9413Z" fill="#E6E6E6"/>
<path d="M136.786 27.3015C137.776 27.173 138.471 26.2377 138.338 25.2125C138.205 24.1873 137.294 23.4604 136.304 23.5889C135.314 23.7174 134.619 24.6526 134.752 25.6778C134.885 26.703 135.796 27.43 136.786 27.3015Z" fill="#E6E6E6"/>
<path d="M141.716 26.6617C142.707 26.5332 143.401 25.5979 143.268 24.5727C143.135 23.5475 142.225 22.8206 141.235 22.9491C140.244 23.0776 139.55 24.0128 139.683 25.038C139.816 26.0632 140.726 26.7902 141.716 26.6617Z" fill="#E6E6E6"/>
<path d="M163.457 189.731C160.711 168.573 141.927 159.174 121.481 156.222C95.2673 152.436 78.5963 169.143 89.4486 199.335C96.6538 219.38 123.632 247.19 130.694 227.221C138.775 204.37 166.202 210.89 163.457 189.731Z" fill="#F2F2F2"/>
<path d="M34.1165 294.319C34.1646 294.69 34.4912 294.951 34.8497 294.904L318.539 258.092C318.898 258.045 319.147 257.71 319.099 257.339C319.051 256.967 318.724 256.707 318.366 256.753L34.676 293.566C34.3175 293.612 34.0683 293.948 34.1165 294.319Z" fill="#CCCCCC"/>
<path d="M113.245 192.406L108.49 190.794C110.667 193.205 112.784 197.138 114.057 200.32C115.091 197.068 116.913 193.016 118.907 190.478L114.346 192.349C115.34 177.2 124.914 165.174 137.453 163.547L137.561 162.99C124.464 164.69 114.223 176.653 113.245 192.406Z" fill="#3F3D56"/>
<path d="M136.74 212.244L108.495 215.909C107.297 216.065 106.192 215.182 106.031 213.942C105.87 212.702 106.713 211.566 107.911 211.411L136.156 207.745C137.354 207.59 138.46 208.473 138.621 209.713C138.782 210.953 137.938 212.089 136.74 212.244Z" fill="#AECAA5"/>
<path d="M148.015 92.238L155.75 151.847C156.434 157.119 152.849 161.945 147.757 162.606L90.1814 170.077C85.0898 170.738 80.3911 166.987 79.707 161.715L71.9719 102.106C71.2878 96.8341 74.8735 92.0081 79.9652 91.3474L137.541 83.8762C142.632 83.2155 147.331 86.9665 148.015 92.238ZM147.611 161.481C152.111 160.897 155.268 156.647 154.664 151.988L150.764 121.936C148.041 100.953 129.405 86.0756 109.138 88.7054L80.1111 92.4721C75.6114 93.056 72.4537 97.306 73.0582 101.965L80.7934 161.574C81.3979 166.233 85.5357 169.536 90.0354 168.952L147.611 161.481Z" fill="#3F3D56"/>
<path d="M119.576 110.963L100.989 113.375C100.52 113.436 100.088 113.09 100.025 112.605C99.9619 112.12 100.292 111.676 100.761 111.615L119.348 109.203C119.817 109.142 120.249 109.487 120.312 109.973C120.375 110.458 120.045 110.902 119.576 110.963L119.576 110.963Z" fill="#3F3D56"/>
<path d="M122.011 129.725L103.424 132.137C102.955 132.198 102.522 131.852 102.46 131.367C102.397 130.882 102.727 130.438 103.195 130.377L121.783 127.965C122.251 127.904 122.684 128.25 122.747 128.735C122.81 129.22 122.48 129.664 122.011 129.725L122.011 129.725Z" fill="#3F3D56"/>
<path d="M116.134 156.791L97.5466 159.203C97.0779 159.264 96.6454 158.919 96.5825 158.434C96.5195 157.948 96.8496 157.504 97.3182 157.444L115.906 155.032C116.374 154.971 116.807 155.316 116.87 155.801C116.932 156.286 116.603 156.73 116.134 156.791L116.134 156.791Z" fill="#3F3D56"/>
<path d="M130.769 119.056L92.2328 124.056C91.7642 124.117 91.3317 123.772 91.2688 123.287C91.2058 122.801 91.5359 122.357 92.0045 122.297L130.54 117.296C131.009 117.235 131.441 117.58 131.504 118.065C131.567 118.551 131.237 118.995 130.769 119.056L130.769 119.056Z" fill="#3F3D56"/>
</g>
<defs>
<clipPath id="clip0_1_493">
<rect width="287.372" height="259.982" fill="white" transform="translate(0.74762 37.1682) rotate(-7.3936)"/>
</clipPath>
</defs>
</svg>
