<svg width="66" height="67" viewBox="0 0 66 67" fill="none" xmlns="http://www.w3.org/2000/svg">
<g clip-path="url(#clip0_8_262)">
<path d="M43.6028 27.0154C43.5414 27.0155 43.4825 27.0398 43.439 27.0831C43.3956 27.1264 43.3712 27.185 43.3711 27.2462V43.0884C43.3712 43.1495 43.3956 43.2082 43.439 43.2515C43.4825 43.2947 43.5414 43.319 43.6028 43.3191H65.7683C65.8297 43.319 65.8887 43.2947 65.9321 43.2515C65.9755 43.2082 66 43.1495 66 43.0884V27.2462C66 27.185 65.9755 27.1264 65.9321 27.0831C65.8887 27.0398 65.8297 27.0155 65.7683 27.0154H43.6028Z" fill="#E6E6E6"/>
<path d="M64.5442 28.4323V39.6911C64.5442 39.7662 64.5142 39.8382 64.4608 39.8913C64.4075 39.9444 64.3352 39.9743 64.2597 39.9743H45.0657C45.0522 39.9744 45.0388 39.9733 45.0255 39.9708C44.9578 39.9613 44.8958 39.9277 44.851 39.8763C44.8061 39.8249 44.7813 39.7592 44.7812 39.6911V28.4323C44.7813 28.3572 44.8112 28.2852 44.8646 28.2321C44.9179 28.179 44.9902 28.1492 45.0657 28.1491H64.2597C64.3352 28.1492 64.4075 28.179 64.4608 28.2321C64.5142 28.2852 64.5442 28.3572 64.5442 28.4323V28.4323Z" fill="white"/>
<path d="M60.5658 33.3014C61.1353 33.3014 61.597 32.8417 61.597 32.2747C61.597 31.7076 61.1353 31.2479 60.5658 31.2479C59.9963 31.2479 59.5347 31.7076 59.5347 32.2747C59.5347 32.8417 59.9963 33.3014 60.5658 33.3014Z" fill="#FF6584"/>
<path d="M44.0334 27.9232C44.2212 27.9232 44.3734 27.7717 44.3734 27.5847C44.3734 27.3978 44.2212 27.2462 44.0334 27.2462C43.8457 27.2462 43.6935 27.3978 43.6935 27.5847C43.6935 27.7717 43.8457 27.9232 44.0334 27.9232Z" fill="#3F3D56"/>
<path d="M65.2924 27.9232C65.4801 27.9232 65.6323 27.7717 65.6323 27.5847C65.6323 27.3978 65.4801 27.2462 65.2924 27.2462C65.1046 27.2462 64.9524 27.3978 64.9524 27.5847C64.9524 27.7717 65.1046 27.9232 65.2924 27.9232Z" fill="#3F3D56"/>
<path d="M44.0334 43.0884C44.2212 43.0884 44.3734 42.9368 44.3734 42.7499C44.3734 42.5629 44.2212 42.4113 44.0334 42.4113C43.8457 42.4113 43.6935 42.5629 43.6935 42.7499C43.6935 42.9368 43.8457 43.0884 44.0334 43.0884Z" fill="#3F3D56"/>
<path d="M65.2924 43.0884C65.4801 43.0884 65.6323 42.9368 65.6323 42.7499C65.6323 42.5629 65.4801 42.4113 65.2924 42.4113C65.1046 42.4113 64.9524 42.5629 64.9524 42.7499C64.9524 42.9368 65.1046 43.0884 65.2924 43.0884Z" fill="#3F3D56"/>
<path d="M51.1051 36.3053C51.7883 36.3053 52.3422 35.7538 52.3422 35.0734C52.3422 34.3931 51.7883 33.8416 51.1051 33.8416C50.4218 33.8416 49.8679 34.3931 49.8679 35.0734C49.8679 35.7538 50.4218 36.3053 51.1051 36.3053Z" fill="#AECAA5"/>
<path d="M51.2243 38.7838H50.9709L51.0865 34.8878L51.2243 38.7838Z" fill="#3F3D56"/>
<path d="M51.1088 35.6263L51.3809 35.2515L51.1051 35.7191L51.0753 35.6671L51.1088 35.6263Z" fill="#3F3D56"/>
<path d="M51.079 36.0048L50.807 35.63L51.0828 36.0975L51.1126 36.0455L51.079 36.0048Z" fill="#3F3D56"/>
<path d="M62.4537 36.3053C63.137 36.3053 63.6909 35.7538 63.6909 35.0734C63.6909 34.3931 63.137 33.8416 62.4537 33.8416C61.7705 33.8416 61.2166 34.3931 61.2166 35.0734C61.2166 35.7538 61.7705 36.3053 62.4537 36.3053Z" fill="#AECAA5"/>
<path d="M62.5729 38.7838H62.3196L62.4351 34.8878L62.5729 38.7838Z" fill="#3F3D56"/>
<path d="M62.4575 35.6263L62.7295 35.2515L62.4538 35.7191L62.424 35.6671L62.4575 35.6263Z" fill="#3F3D56"/>
<path d="M62.4277 36.0048L62.1556 35.63L62.4313 36.0975L62.4612 36.0455L62.4277 36.0048Z" fill="#3F3D56"/>
<path d="M54.689 35.8182C55.6981 35.8182 56.5162 35.0036 56.5162 33.9988C56.5162 32.994 55.6981 32.1795 54.689 32.1795C53.6799 32.1795 52.8618 32.994 52.8618 33.9988C52.8618 35.0036 53.6799 35.8182 54.689 35.8182Z" fill="#AECAA5"/>
<path d="M54.865 39.4788H54.4908L54.6614 33.7248L54.865 39.4788Z" fill="#3F3D56"/>
<path d="M54.6945 34.8153L55.0962 34.2618L54.689 34.9523L54.6449 34.8756L54.6945 34.8153Z" fill="#3F3D56"/>
<path d="M54.6504 35.3744L54.2487 34.8208L54.6559 35.5114L54.7 35.4346L54.6504 35.3744Z" fill="#3F3D56"/>
<path d="M59.1448 35.1232C60.1539 35.1232 60.972 34.3087 60.972 33.3039C60.972 32.2991 60.1539 31.4845 59.1448 31.4845C58.1357 31.4845 57.3176 32.2991 57.3176 33.3039C57.3176 34.3087 58.1357 35.1232 59.1448 35.1232Z" fill="#AECAA5"/>
<path d="M59.321 38.7838H58.9468L59.1173 33.0298L59.321 38.7838Z" fill="#3F3D56"/>
<path d="M59.1504 34.1203L59.5521 33.5669L59.1448 34.2573L59.1008 34.1806L59.1504 34.1203Z" fill="#3F3D56"/>
<path d="M59.1064 34.6794L58.7046 34.1258L59.1119 34.8164L59.1559 34.7397L59.1064 34.6794Z" fill="#3F3D56"/>
<path d="M47.5873 35.1232C48.5964 35.1232 49.4145 34.3087 49.4145 33.3039C49.4145 32.2991 48.5964 31.4845 47.5873 31.4845C46.5782 31.4845 45.7601 32.2991 45.7601 33.3039C45.7601 34.3087 46.5782 35.1232 47.5873 35.1232Z" fill="#AECAA5"/>
<path d="M47.7634 38.7838H47.3892L47.5598 33.0298L47.7634 38.7838Z" fill="#3F3D56"/>
<path d="M47.5929 34.1203L47.9947 33.5669L47.5874 34.2573L47.5433 34.1806L47.5929 34.1203Z" fill="#3F3D56"/>
<path d="M47.5489 34.6794L47.1471 34.1258L47.5544 34.8164L47.5983 34.7397L47.5489 34.6794Z" fill="#3F3D56"/>
<path d="M54.791 39.9743H45.0657C45.0522 39.9744 45.0388 39.9733 45.0255 39.9708C44.9578 39.9613 44.8958 39.9277 44.851 39.8763C44.8061 39.8249 44.7813 39.7592 44.7812 39.6911V37.2734C45.6964 37.1216 46.6227 37.0466 47.5504 37.0493C51.0028 37.0493 53.8906 38.0344 54.6147 39.3531C54.724 39.5425 54.7845 39.7559 54.791 39.9743V39.9743Z" fill="#3F3D56"/>
<path d="M64.5442 39.1429V39.691C64.5442 39.7662 64.5142 39.8382 64.4609 39.8913C64.4075 39.9444 64.3352 39.9742 64.2598 39.9743H53.4998C53.8459 39.7247 54.2201 39.5162 54.6148 39.3531C55.933 38.7902 57.7922 38.4392 59.8521 38.4392C61.6424 38.4392 63.28 38.7033 64.5442 39.1429Z" fill="#3F3D56"/>
<path d="M55.9354 0C55.8975 5.21344e-05 55.8602 0.00937505 55.8268 0.0271478L36.2576 10.392C36.2034 10.4209 36.1629 10.4699 36.145 10.5284C36.1271 10.5869 36.1332 10.6501 36.1619 10.7041L43.6336 24.6907C43.6626 24.7447 43.7118 24.785 43.7706 24.8029C43.8294 24.8208 43.8929 24.8147 43.9472 24.7861L63.5163 14.4212C63.5705 14.3924 63.611 14.3433 63.629 14.2848C63.6469 14.2263 63.6408 14.1631 63.6121 14.1091L56.1403 0.122546C56.1261 0.0957281 56.1066 0.0719873 56.0831 0.0526989C56.0596 0.0334104 56.0325 0.0189583 56.0034 0.0101797C55.9813 0.00345518 55.9584 2.45493e-05 55.9354 0V0Z" fill="#E6E6E6"/>
<path d="M55.4147 1.85038L60.7245 11.79C60.7421 11.8228 60.753 11.8588 60.7566 11.8959C60.7602 11.9329 60.7564 11.9703 60.7455 12.0059C60.7345 12.0415 60.7167 12.0746 60.6929 12.1034C60.6691 12.1321 60.6399 12.1559 60.6069 12.1733L43.6613 21.1486C43.6493 21.1551 43.6368 21.1605 43.6238 21.1649C43.5595 21.188 43.4889 21.1872 43.4251 21.1627C43.3613 21.1382 43.3085 21.0916 43.2763 21.0315L37.9665 11.0919C37.9489 11.059 37.938 11.023 37.9344 10.986C37.9308 10.9489 37.9346 10.9115 37.9455 10.8759C37.9565 10.8403 37.9743 10.8072 37.9981 10.7785C38.0219 10.7498 38.0511 10.726 38.0841 10.7085L55.0296 1.73325C55.0626 1.71575 55.0988 1.70491 55.136 1.70133C55.1732 1.69775 55.2108 1.7015 55.2465 1.71238C55.2823 1.72326 55.3155 1.74104 55.3444 1.76472C55.3732 1.7884 55.3971 1.81751 55.4147 1.85038V1.85038Z" fill="white"/>
<path d="M44.0885 14.7804C45.4678 14.7804 46.5859 13.667 46.5859 12.2937C46.5859 10.9203 45.4678 9.80701 44.0885 9.80701C42.7093 9.80701 41.5912 10.9203 41.5912 12.2937C41.5912 13.667 42.7093 14.7804 44.0885 14.7804Z" fill="#FF6584"/>
<path d="M54.6169 15.397L43.8007 21.1259C43.7872 21.1333 43.7731 21.1394 43.7585 21.1441L44.1608 9.61157C44.1626 9.54009 44.1835 9.47038 44.2213 9.40956C44.2591 9.34875 44.3124 9.29901 44.3758 9.26543C44.4392 9.23184 44.5104 9.21562 44.5822 9.21842C44.6539 9.22121 44.7237 9.24293 44.7842 9.28134L51.3805 13.3839L51.6963 13.5801L54.6169 15.397Z" fill="#3F3D56"/>
<path opacity="0.2" d="M54.6169 15.3971L50.924 17.353L51.3361 13.7709L51.3657 13.5129L51.3804 13.3839L51.6962 13.5801L54.6169 15.3971Z" fill="black"/>
<path d="M60.6394 12.2073L51.2842 17.1623L51.6963 13.5801L51.7259 13.3221L52.2628 8.65399C52.2981 8.34802 52.6632 8.13674 52.9498 8.23595C52.9692 8.24282 52.9881 8.25091 53.0064 8.26017L60.6394 12.2073Z" fill="#3F3D56"/>
<path d="M36.9064 11.0318C37.0941 11.0318 37.2463 10.8802 37.2463 10.6933C37.2463 10.5063 37.0941 10.3548 36.9064 10.3548C36.7186 10.3548 36.5664 10.5063 36.5664 10.6933C36.5664 10.8802 36.7186 11.0318 36.9064 11.0318Z" fill="#3F3D56"/>
<path d="M55.6752 1.09083C55.8629 1.09083 56.0151 0.939279 56.0151 0.752326C56.0151 0.565373 55.8629 0.413818 55.6752 0.413818C55.4874 0.413818 55.3352 0.565373 55.3352 0.752326C55.3352 0.939279 55.4874 1.09083 55.6752 1.09083Z" fill="#3F3D56"/>
<path d="M44.0588 24.4206C44.2466 24.4206 44.3988 24.2691 44.3988 24.0821C44.3988 23.8951 44.2466 23.7436 44.0588 23.7436C43.8711 23.7436 43.7189 23.8951 43.7189 24.0821C43.7189 24.2691 43.8711 24.4206 44.0588 24.4206Z" fill="#3F3D56"/>
<path d="M62.8276 14.4796C63.0154 14.4796 63.1676 14.3281 63.1676 14.1411C63.1676 13.9542 63.0154 13.8026 62.8276 13.8026C62.6399 13.8026 62.4877 13.9542 62.4877 14.1411C62.4877 14.3281 62.6399 14.4796 62.8276 14.4796Z" fill="#3F3D56"/>
<path d="M60.6737 66.9922C60.7332 67.0078 60.7964 66.9994 60.8495 66.9687C60.9027 66.938 60.9414 66.8876 60.9573 66.8285L65.0475 51.5187C65.0632 51.4596 65.0548 51.3966 65.024 51.3437C64.9931 51.2907 64.9424 51.2521 64.883 51.2364L43.4625 45.5625C43.4031 45.5468 43.3398 45.5553 43.2867 45.586C43.2335 45.6167 43.1947 45.6671 43.1789 45.7263L39.0888 61.036C39.081 61.0653 39.0791 61.0958 39.0831 61.1259C39.0871 61.1559 39.0971 61.1849 39.1123 61.2111C39.1276 61.2373 39.1479 61.2603 39.1721 61.2787C39.1963 61.2971 39.2239 61.3105 39.2533 61.3183L60.6737 66.9922Z" fill="#E6E6E6"/>
<path d="M63.3343 52.2924L60.4275 63.1727C60.4081 63.2453 60.3606 63.3072 60.2953 63.3449C60.23 63.3825 60.1524 63.3929 60.0795 63.3736L41.5305 58.4603C41.5175 58.4571 41.5048 58.4525 41.4927 58.4467C41.4297 58.4202 41.3784 58.3719 41.3483 58.3107C41.3182 58.2496 41.3113 58.1797 41.3288 58.1138L44.2356 47.2335C44.255 47.1609 44.3025 47.099 44.3678 47.0613C44.433 47.0237 44.5106 47.0133 44.5835 47.0326L63.1325 51.9459C63.2054 51.9652 63.2676 52.0125 63.3055 52.0775C63.3433 52.1425 63.3537 52.2198 63.3343 52.2924V52.2924Z" fill="white"/>
<path d="M60.8404 61.6271L60.4275 63.1727C60.4081 63.2453 60.3606 63.3072 60.2953 63.3449C60.23 63.3825 60.1524 63.3929 60.0795 63.3736L41.5305 58.4603C41.5175 58.4571 41.5048 58.4525 41.4927 58.4467C41.4297 58.4202 41.3784 58.3719 41.3483 58.3107C41.3182 58.2496 41.3113 58.1797 41.3288 58.1138L41.7417 56.5683L60.8404 61.6271Z" fill="#3F3D56"/>
<path d="M52.6446 60.445L49.6936 59.6634L49.6039 59.9992L52.5549 60.7809L52.6446 60.445Z" fill="#CCCCCC"/>
<path d="M45.8573 58.6473L42.9064 57.8656L42.8167 58.2014L45.7676 58.9831L45.8573 58.6473Z" fill="#CCCCCC"/>
<path d="M59.4318 62.2428L56.4808 61.4612L56.3911 61.797L59.3421 62.5786L59.4318 62.2428Z" fill="#CCCCCC"/>
<path d="M43.7317 46.5615C43.9194 46.5615 44.0716 46.4099 44.0716 46.223C44.0716 46.036 43.9194 45.8845 43.7317 45.8845C43.5439 45.8845 43.3917 46.036 43.3917 46.223C43.3917 46.4099 43.5439 46.5615 43.7317 46.5615Z" fill="#3F3D56"/>
<path d="M64.2761 52.0032C64.4639 52.0032 64.6161 51.8517 64.6161 51.6647C64.6161 51.4778 64.4639 51.3262 64.2761 51.3262C64.0884 51.3262 63.9362 51.4778 63.9362 51.6647C63.9362 51.8517 64.0884 52.0032 64.2761 52.0032Z" fill="#3F3D56"/>
<path d="M39.8164 61.2169C40.0042 61.2169 40.1564 61.0654 40.1564 60.8784C40.1564 60.6915 40.0042 60.5399 39.8164 60.5399C39.6286 60.5399 39.4764 60.6915 39.4764 60.8784C39.4764 61.0654 39.6286 61.2169 39.8164 61.2169Z" fill="#3F3D56"/>
<path d="M60.3608 66.6587C60.5486 66.6587 60.7008 66.5072 60.7008 66.3202C60.7008 66.1332 60.5486 65.9817 60.3608 65.9817C60.1731 65.9817 60.0209 66.1332 60.0209 66.3202C60.0209 66.5072 60.1731 66.6587 60.3608 66.6587Z" fill="#3F3D56"/>
<path d="M56.2789 60.9221L57.9188 61.3574L57.9882 61.0982L56.3483 60.6629L56.2789 60.9221Z" fill="#3F3D56"/>
<path d="M44.4741 57.58L44.7917 57.7475L57.6505 61.1609L57.8378 60.9232C58.1625 60.5165 58.3671 60.0278 58.429 59.5119C58.4726 59.1267 58.4321 58.7217 58.1596 58.4783L58.6001 54.5422L51.4883 52.6449L48.1449 54.1265C48.1449 54.1265 46.8526 53.7593 45.9135 54.447C45.5721 54.7047 45.3166 55.0589 45.1802 55.4633L45.0309 55.9108L44.4741 57.58Z" fill="#AECAA5"/>
<path d="M47.3158 59.9011C48.2233 59.9011 48.959 59.1685 48.959 58.2649C48.959 57.3612 48.2233 56.6286 47.3158 56.6286C46.4082 56.6286 45.6725 57.3612 45.6725 58.2649C45.6725 59.1685 46.4082 59.9011 47.3158 59.9011Z" fill="#3F3D56"/>
<path d="M47.3158 59.126C47.7935 59.126 48.1807 58.7405 48.1807 58.2648C48.1807 57.7892 47.7935 57.4037 47.3158 57.4037C46.8382 57.4037 46.4509 57.7892 46.4509 58.2648C46.4509 58.7405 46.8382 59.126 47.3158 59.126Z" fill="#CCCCCC"/>
<path d="M55.1509 61.9809C56.0584 61.9809 56.7941 61.2483 56.7941 60.3447C56.7941 59.441 56.0584 58.7084 55.1509 58.7084C54.2433 58.7084 53.5076 59.441 53.5076 60.3447C53.5076 61.2483 54.2433 61.9809 55.1509 61.9809Z" fill="#3F3D56"/>
<path d="M55.1508 61.2058C55.6284 61.2058 56.0157 60.8203 56.0157 60.3446C56.0157 59.869 55.6284 59.4835 55.1508 59.4835C54.6731 59.4835 54.2859 59.869 54.2859 60.3446C54.2859 60.8203 54.6731 61.2058 55.1508 61.2058Z" fill="#CCCCCC"/>
<path d="M49.3077 54.1578L53.1488 55.177L53.6178 55.3012L54.4094 55.5116L54.4248 55.454L54.6105 54.7609L54.8191 53.9826L54.2924 53.8431L53.8235 53.7183L52.993 53.4978L52.5241 53.3735L51.5652 53.119L49.3077 54.1578Z" fill="white"/>
<path d="M55.0343 55.6777L57.0643 56.2165L57.1709 55.82L57.356 55.1268L57.474 54.6877L57.1767 54.6089L56.7079 54.4841L55.4434 54.1486L55.0343 55.6777Z" fill="white"/>
<path d="M53.7122 57.076L53.9725 57.1451L54.1044 56.6526L53.8441 56.5835L53.7122 57.076Z" fill="#3F3D56"/>
<path d="M50.1614 55.1337L50.2308 54.8745L49.7363 54.7433L49.6669 55.0024L50.1614 55.1337Z" fill="#3F3D56"/>
<path d="M50.0181 54.9402L49.9894 54.9326C49.8451 54.8943 49.7221 54.8005 49.6472 54.6718C49.5724 54.5432 49.552 54.3902 49.5904 54.2465V54.2465C49.6289 54.1028 49.7231 53.9803 49.8523 53.9058C49.9816 53.8313 50.1352 53.8109 50.2795 53.8492L50.3081 53.8568L50.0181 54.9402Z" fill="#3F3D56"/>
<path d="M45.0309 55.9108C45.2221 55.9843 45.4331 55.9882 45.627 55.9219C45.8208 55.8556 45.9849 55.7233 46.0903 55.5484C46.1958 55.3735 46.2359 55.1671 46.2036 54.9656C46.1712 54.7641 46.0685 54.5804 45.9135 54.447C45.5721 54.7047 45.3166 55.0589 45.1803 55.4632L45.0309 55.9108Z" fill="#3F3D56"/>
<path d="M53.8235 53.7183L54.4248 55.454L54.6105 54.7609L54.2923 53.8431L53.8235 53.7183Z" fill="#F2F2F2"/>
<path d="M56.7079 54.4841L57.1709 55.8199L57.356 55.1268L57.1767 54.6088L56.7079 54.4841Z" fill="#F2F2F2"/>
<path d="M52.524 53.3735L53.1488 55.177L53.6178 55.3012L52.993 53.4978L52.524 53.3735Z" fill="#F2F2F2"/>
<path d="M3.49129 26.9578C4.0695 26.9578 4.53824 26.4911 4.53824 25.9153C4.53824 25.3396 4.0695 24.8729 3.49129 24.8729C2.91307 24.8729 2.44434 25.3396 2.44434 25.9153C2.44434 26.4911 2.91307 26.9578 3.49129 26.9578Z" fill="#AECAA5"/>
<path opacity="0.2" d="M3.93318 24.9713C4.11881 25.1386 4.23795 25.3668 4.2689 25.6143C4.29985 25.8617 4.24057 26.112 4.10183 26.3197C3.9631 26.5273 3.75413 26.6784 3.51294 26.7456C3.27175 26.8127 3.01436 26.7914 2.7876 26.6856C2.89902 26.7867 3.03108 26.8626 3.17472 26.9082C3.31837 26.9537 3.4702 26.9678 3.61982 26.9495C3.76945 26.9312 3.91333 26.8809 4.04161 26.8021C4.16989 26.7232 4.27954 26.6177 4.36305 26.4927C4.44656 26.3678 4.50195 26.2263 4.52544 26.078C4.54893 25.9297 4.53995 25.7782 4.49912 25.6337C4.4583 25.4892 4.38659 25.3552 4.2889 25.2408C4.19122 25.1265 4.06988 25.0345 3.93318 24.9713V24.9713Z" fill="black"/>
<path d="M30.4066 28.0871C31.8281 28.0871 32.9804 27.6204 32.9804 27.0447C32.9804 26.4689 31.8281 26.0022 30.4066 26.0022C28.9852 26.0022 27.8329 26.4689 27.8329 27.0447C27.8329 27.6204 28.9852 28.0871 30.4066 28.0871Z" fill="#3F3D56"/>
<path opacity="0.2" d="M30.4066 26.0022C30.3183 26.0022 30.231 26.004 30.1449 26.0075C31.4434 26.0607 32.4569 26.5047 32.4569 27.0447C32.4569 27.5846 31.4434 28.0287 30.1449 28.0818C30.231 28.0853 30.3182 28.0871 30.4066 28.0871C31.8281 28.0871 32.9804 27.6204 32.9804 27.0447C32.9804 26.4689 31.8281 26.0022 30.4066 26.0022Z" fill="black"/>
<path d="M33.7657 27.0447H20.8533V25.6547C20.8533 25.5856 20.8258 25.5193 20.7767 25.4704C20.7276 25.4216 20.661 25.3941 20.5916 25.3941H13.4374C13.368 25.3941 13.3015 25.4216 13.2524 25.4704C13.2033 25.5193 13.1757 25.5856 13.1757 25.6547V27.0447H5.67256V26.176C5.67256 26.1068 5.64499 26.0406 5.5959 25.9917C5.54682 25.9428 5.48024 25.9153 5.41083 25.9153H1.57201C1.50259 25.9153 1.43602 25.9428 1.38694 25.9917C1.33785 26.0406 1.31027 26.1068 1.31027 26.176V27.0447H0.263325C0.22894 27.0446 0.194884 27.0514 0.163108 27.0644C0.131332 27.0775 0.102461 27.0967 0.0781469 27.1209C0.0538332 27.1451 0.0345549 27.1739 0.0214177 27.2055C0.00828041 27.2372 0.00154121 27.2711 0.00158715 27.3053V44.4192C0.00154121 44.4535 0.00828041 44.4874 0.0214177 44.519C0.0345549 44.5507 0.0538332 44.5794 0.0781469 44.6036C0.102461 44.6278 0.131332 44.647 0.163108 44.6601C0.194884 44.6732 0.22894 44.6799 0.263325 44.6799H33.7657C33.8001 44.6799 33.8342 44.6732 33.8659 44.6601C33.8977 44.647 33.9266 44.6278 33.9509 44.6036C33.9752 44.5794 33.9945 44.5507 34.0076 44.519C34.0208 44.4874 34.0275 44.4535 34.0275 44.4192V27.3053C34.0275 27.2711 34.0208 27.2372 34.0076 27.2055C33.9945 27.1739 33.9752 27.1451 33.9509 27.1209C33.9266 27.0967 33.8977 27.0775 33.8659 27.0644C33.8342 27.0514 33.8001 27.0446 33.7657 27.0447V27.0447Z" fill="#3F3D56"/>
<path opacity="0.2" d="M33.7641 43.4035H0.261738C0.227353 43.4036 0.193298 43.3969 0.161521 43.3838C0.129745 43.3707 0.100872 43.3515 0.0765586 43.3273C0.0522449 43.3031 0.032968 43.2743 0.0198308 43.2427C0.0066935 43.2111 -4.5705e-05 43.1772 2.33281e-07 43.1429V44.3591C-4.5705e-05 44.3934 0.0066935 44.4273 0.0198308 44.4589C0.032968 44.4906 0.0522449 44.5193 0.0765586 44.5435C0.100872 44.5677 0.129745 44.5869 0.161521 44.6C0.193298 44.6131 0.227353 44.6198 0.261738 44.6198H33.7641C33.7985 44.6198 33.8326 44.6131 33.8643 44.6C33.8961 44.5869 33.925 44.5677 33.9493 44.5435C33.9736 44.5193 33.9929 44.4906 34.006 44.4589C34.0192 44.4273 34.0259 44.3934 34.0259 44.3591V43.1429C34.0259 43.1772 34.0192 43.2111 34.006 43.2427C33.9929 43.2743 33.9736 43.3031 33.9493 43.3273C33.925 43.3515 33.8961 43.3707 33.8643 43.3838C33.8326 43.3969 33.7985 43.4036 33.7641 43.4035Z" fill="black"/>
<path opacity="0.2" d="M34.0275 35.037H0.00158691V38.3382H34.0275V35.037Z" fill="black"/>
<path opacity="0.2" d="M34.0275 33.3864H0.00158691V36.6876H34.0275V33.3864Z" fill="black"/>
<path d="M34.0275 34.1682H0.00158691V37.4694H34.0275V34.1682Z" fill="#AECAA5"/>
<path d="M17.0143 42.4212C20.6764 42.4212 23.645 39.4652 23.645 35.8188C23.645 32.1725 20.6764 29.2165 17.0143 29.2165C13.3523 29.2165 10.3837 32.1725 10.3837 35.8188C10.3837 39.4652 13.3523 42.4212 17.0143 42.4212Z" fill="#AECAA5"/>
<path opacity="0.2" d="M22.1218 31.6086C22.9653 33.0396 23.2367 34.7343 22.8821 36.3555C22.5275 37.9767 21.5728 39.4055 20.208 40.3575C18.8433 41.3096 17.1685 41.715 15.5172 41.4932C13.8658 41.2713 12.3588 40.4384 11.2963 39.1603C11.7597 39.9466 12.3816 40.6288 13.1229 41.164C13.8642 41.6991 14.7087 42.0756 15.6034 42.2696C16.498 42.4637 17.4233 42.4712 18.3209 42.2916C19.2186 42.1119 20.0692 41.7491 20.8191 41.226C21.569 40.7029 22.2019 40.0308 22.6781 39.2521C23.1542 38.4734 23.4632 37.6049 23.5856 36.7014C23.708 35.7979 23.6411 34.8789 23.3891 34.0024C23.1372 33.1259 22.7057 32.3109 22.1218 31.6086V31.6086Z" fill="black"/>
<path d="M17.0144 40.7322C19.7396 40.7322 21.9489 38.5324 21.9489 35.8188C21.9489 33.1052 19.7396 30.9055 17.0144 30.9055C14.2892 30.9055 12.08 33.1052 12.08 35.8188C12.08 38.5324 14.2892 40.7322 17.0144 40.7322Z" fill="#3F3D56"/>
<path d="M20.8532 35.8188C20.8539 36.3377 20.7479 36.8513 20.5417 37.3278C20.4312 37.5848 20.2922 37.8287 20.1273 38.0549C19.8021 38.5041 19.3828 38.8776 18.8983 39.1496C18.4139 39.4215 17.8759 39.5854 17.3216 39.6298C16.7673 39.6743 16.2099 39.5984 15.688 39.4072C15.1661 39.216 14.6921 38.9142 14.2989 38.5227C13.9057 38.1311 13.6026 37.6592 13.4106 37.1395C13.2186 36.6198 13.1423 36.0648 13.187 35.5129C13.2316 34.9609 13.3962 34.4252 13.6693 33.9429C13.9424 33.4605 14.3175 33.043 14.7686 32.7192C14.9958 32.555 15.2408 32.4166 15.4989 32.3066C16.0828 32.0568 16.7199 31.9554 17.353 32.0113C17.9861 32.0672 18.5953 32.2787 19.126 32.6268C19.6567 32.975 20.0924 33.4489 20.3938 34.006C20.6953 34.5631 20.8531 35.186 20.8532 35.8188V35.8188Z" fill="white"/>
<path opacity="0.2" d="M20.8123 35.262C20.6691 34.2901 20.1552 33.4106 19.3773 32.8065C19.7144 33.332 19.9172 33.9317 19.9681 34.5532C20.019 35.1748 19.9164 35.7992 19.6693 36.3722C19.5589 36.6292 19.4199 36.8731 19.2549 37.0993C18.9529 37.5166 18.5693 37.8688 18.1273 38.1348C17.6852 38.4009 17.1938 38.5753 16.6824 38.6477C16.171 38.72 15.6502 38.6888 15.1512 38.5559C14.6522 38.4229 14.1854 38.1911 13.7786 37.8741C14.1152 38.4003 14.5762 38.8364 15.1212 39.1442C15.6661 39.4521 16.2785 39.6224 16.9048 39.6402C17.5311 39.6581 18.1523 39.5229 18.7141 39.2466C19.2758 38.9702 19.7611 38.5611 20.1274 38.0549C20.2923 37.8287 20.4313 37.5848 20.5418 37.3278C20.8222 36.6774 20.9159 35.9622 20.8123 35.262V35.262Z" fill="black"/>
</g>
<defs>
<clipPath id="clip0_8_262">
<rect width="66" height="67" fill="white"/>
</clipPath>
</defs>
</svg>
