<svg width="317" height="272" viewBox="0 0 317 272" fill="none" xmlns="http://www.w3.org/2000/svg">
<g clip-path="url(#clip0_1_607)">
<path d="M162.583 64.5684H161.155V23.6705C161.155 17.3927 158.767 11.372 154.515 6.93292C150.263 2.49385 144.496 3.08768e-09 138.483 3.08768e-09H55.4856C52.5082 -5.02025e-05 49.5599 0.612155 46.8091 1.80166C44.0583 2.99117 41.5589 4.73468 39.4535 6.93265C37.3481 9.13062 35.678 11.74 34.5386 14.6118C33.3991 17.4836 32.8126 20.5616 32.8126 23.6701V248.039C32.8126 251.148 33.399 254.226 34.5384 257.098C35.6778 259.97 37.3479 262.579 39.4532 264.777C41.5586 266.975 44.058 268.719 46.8088 269.908C49.5596 271.098 52.5078 271.71 55.4852 271.71H138.482C144.495 271.71 150.262 269.216 154.514 264.777C158.765 260.338 161.154 254.317 161.154 248.039V93.6803H162.582L162.583 64.5684Z" fill="#3F3D56"/>
<path d="M156.531 22.0851V249.624C156.531 254.384 154.72 258.948 151.496 262.315C148.273 265.681 143.901 267.572 139.342 267.574H54.6419C50.081 267.575 45.7066 265.684 42.4808 262.318C39.2551 258.952 37.4422 254.386 37.4408 249.624V22.0851C37.4422 17.3236 39.255 12.7577 42.4806 9.3916C45.7062 6.02548 50.0804 4.1348 54.6411 4.13541H64.9157C64.4112 5.43066 64.2192 6.83545 64.3565 8.22632C64.4938 9.61719 64.9563 10.9516 65.7033 12.1121C66.4503 13.2727 67.4589 14.2239 68.6405 14.8822C69.822 15.5405 71.1404 15.8857 72.4797 15.8875H120.769C122.108 15.8857 123.426 15.5405 124.608 14.8822C125.789 14.2239 126.798 13.2727 127.545 12.1121C128.292 10.9516 128.754 9.61719 128.892 8.22632C129.029 6.83545 128.837 5.43066 128.333 4.13541H139.338C143.897 4.13622 148.27 6.02712 151.494 9.39242C154.718 12.7577 156.53 17.3219 156.531 22.0816V22.0851Z" fill="white"/>
<path d="M136.869 218.76H58.6465C55.8331 218.756 53.136 217.588 51.1466 215.511C49.1573 213.434 48.0383 210.618 48.0352 207.681V92.7966C48.0352 64.9029 69.7716 42.2096 96.4896 42.2096H136.869C139.682 42.2129 142.38 43.3811 144.369 45.458C146.358 47.5348 147.477 50.3506 147.48 53.2877V207.681C147.477 210.618 146.358 213.434 144.369 215.511C142.38 217.588 139.682 218.756 136.869 218.76Z" fill="#E6E6E6"/>
<path d="M53.9608 246.414C57.071 246.414 59.5923 243.782 59.5923 240.535C59.5923 237.288 57.071 234.655 53.9608 234.655C50.8506 234.655 48.3293 237.288 48.3293 240.535C48.3293 243.782 50.8506 246.414 53.9608 246.414Z" fill="#E6E6E6"/>
<path d="M141.666 246.414C144.776 246.414 147.297 243.782 147.297 240.535C147.297 237.288 144.776 234.655 141.666 234.655C138.555 234.655 136.034 237.288 136.034 240.535C136.034 243.782 138.555 246.414 141.666 246.414Z" fill="#E6E6E6"/>
<path d="M142.429 218.533L138.938 222.506L122.602 210.338L127.755 204.475L142.429 218.533Z" fill="#FFB6B6"/>
<path d="M147.007 221.053L135.751 233.86L135.595 233.712C134.329 232.499 133.576 230.81 133.503 229.017C133.429 227.225 134.04 225.475 135.202 224.153L135.202 224.152L135.558 220.185L141.095 217.448L142.077 216.33L147.007 221.053Z" fill="#2F2E41"/>
<path d="M144.711 262.858L139.548 262.858L137.092 242.065L144.713 242.065L144.711 262.858Z" fill="#FFB6B6"/>
<path d="M146.028 268.083L129.379 268.083V267.863C129.379 266.069 130.062 264.348 131.277 263.079C132.493 261.81 134.141 261.098 135.86 261.097H135.86L138.901 258.689L144.575 261.098L146.029 261.098L146.028 268.083Z" fill="#2F2E41"/>
<path d="M119.777 157.893C119.777 157.893 88.234 189.688 108.175 199.53H114.338C114.338 199.53 116.19 192.66 120.431 186.867C121.013 186.072 123.194 186.233 123.8 185.458C127.499 180.724 131.509 176.658 134.279 176.819L136.092 198.773L135.197 205.208C134.634 209.258 134.783 213.383 135.635 217.378L135.004 243.059L146.064 243.066C146.064 243.066 146.511 237.047 146.884 229.519C146.984 227.502 147.815 226.097 147.895 223.951C148.086 218.805 147.453 212.814 147.331 208.614L155.67 162.435L119.777 157.893Z" fill="#2F2E41"/>
<path d="M134.346 90.526L129.203 97.709L116.876 105.279L124.126 124.961L124.401 139.606L123.726 141.373L124.489 144.266C124.489 144.266 124.137 147.652 122.262 150.166C118.983 154.561 113.976 159.338 119.05 160.542C127.027 162.435 155.306 166.598 156.757 163.192C157.258 162.014 157.196 157.031 156.9 151.016C156.844 149.892 155.654 148.668 155.585 147.49C155.533 146.605 156.604 145.773 156.545 144.876C155.898 134.881 154.944 124.583 154.944 124.583L157.782 97.0252L146.43 93.9667L145.156 90.5748L134.346 90.526Z" fill="#AECAA5"/>
<path d="M106.66 197.641L108.346 199.865C108.346 199.865 123.852 211.191 124.385 212.25L126.836 214.671L132.765 208.053L129.681 204.018C127.214 200.789 124.026 198.241 120.396 196.597L115.67 192.219L106.66 197.641Z" fill="#2F2E41"/>
<path d="M116.513 165.854L119.337 137.319L120.082 125.575L112.179 124.083C112.179 124.083 110.995 132.156 109.96 136.894C108.938 141.569 111.321 165.227 111.384 165.851C110.804 166.393 110.394 167.106 110.211 167.896C110.027 168.686 110.077 169.515 110.355 170.275C110.632 171.034 111.124 171.688 111.765 172.149C112.407 172.611 113.167 172.858 113.945 172.858C114.724 172.858 115.484 172.612 116.126 172.151C116.768 171.691 117.26 171.038 117.538 170.278C117.817 169.519 117.868 168.69 117.685 167.9C117.502 167.11 117.093 166.396 116.513 165.854Z" fill="#FFB9B9"/>
<path d="M106.302 142.112L119.945 145.728L119.851 141.73L120.886 140.583L122.955 129.268L125.923 122.64L125.152 99.973L117.613 104.148L117.603 104.155C116.287 105.667 115.186 107.369 114.334 109.209C111.492 115.241 108.762 128.528 107.332 136.245C107.283 136.407 107.188 136.55 107.06 136.655C106.351 137.334 105.889 138.248 105.751 139.242C105.612 140.237 105.807 141.25 106.302 142.112L106.302 142.112Z" fill="#AECAA5"/>
<path d="M187.325 149.398C187.325 149.398 170.715 131.116 170.56 130.771C169.4 121.572 166.063 117.515 165.563 117.955L156.95 121.07C156.95 121.07 159.511 129.54 161.246 134.571C162.904 139.378 182.006 151.12 182.325 151.7C181.983 152.489 181.878 153.368 182.025 154.22C182.171 155.073 182.562 155.859 183.146 156.474C183.73 157.09 184.479 157.506 185.294 157.667C186.109 157.829 186.952 157.728 187.711 157.378C188.47 157.029 189.109 156.447 189.545 155.71C189.98 154.972 190.191 154.114 190.149 153.249C190.107 152.384 189.815 151.553 189.311 150.865C188.806 150.177 188.114 149.666 187.325 149.398H187.325Z" fill="#FFB9B9"/>
<path d="M149.994 97.6543C149.994 97.6543 158.449 93.3282 161.729 101.825C163.527 106.622 168.125 118.263 170.416 125.43C170.431 125.475 170.452 125.518 170.478 125.558C171.091 126.509 171.422 127.627 171.429 128.773C171.428 128.856 171.437 128.94 171.454 129.021C171.454 129.021 162.163 130.911 159.399 135.995L158.303 134.754L158.108 133.884L150.092 111.553L149.994 97.6543Z" fill="#AECAA5"/>
<path d="M288.071 132.332H189.082C188.2 132.331 187.354 131.965 186.731 131.314C186.107 130.663 185.756 129.78 185.755 128.859V113.723C185.756 112.803 186.107 111.92 186.731 111.269C187.354 110.617 188.2 110.251 189.082 110.25H288.071C288.953 110.251 289.799 110.617 290.423 111.269C291.046 111.92 291.397 112.803 291.398 113.723V128.859C291.397 129.78 291.046 130.663 290.423 131.314C289.799 131.965 288.953 132.331 288.071 132.332Z" fill="#E6E6E6"/>
<path d="M278.453 129.99H191.327C190.445 129.989 189.599 129.622 188.975 128.971C188.352 128.32 188.001 127.437 188 126.516V116.068C188.001 115.147 188.352 114.264 188.975 113.613C189.599 112.962 190.445 112.596 191.327 112.595H285.827C286.709 112.596 287.555 112.962 288.179 113.613C288.802 114.264 289.153 115.147 289.154 116.068V118.818C289.151 121.78 288.023 124.62 286.017 126.714C284.01 128.808 281.29 129.986 278.453 129.99Z" fill="white"/>
<path d="M248.4 120.215H208.613C208.386 120.215 208.168 120.12 208.007 119.952C207.846 119.784 207.755 119.556 207.755 119.319C207.755 119.081 207.846 118.853 208.007 118.685C208.168 118.517 208.386 118.423 208.613 118.423H248.4C248.627 118.423 248.845 118.517 249.006 118.685C249.167 118.853 249.258 119.081 249.258 119.319C249.258 119.556 249.167 119.784 249.006 119.952C248.845 120.12 248.627 120.215 248.4 120.215Z" fill="#AECAA5"/>
<path d="M268.54 123.878H208.613C208.386 123.878 208.168 123.784 208.007 123.616C207.846 123.448 207.755 123.22 207.755 122.982C207.755 122.745 207.846 122.517 208.007 122.349C208.168 122.181 208.386 122.087 208.613 122.087H268.54C268.768 122.087 268.986 122.181 269.147 122.349C269.308 122.517 269.398 122.745 269.398 122.982C269.398 123.22 269.308 123.448 269.147 123.616C268.986 123.784 268.768 123.878 268.54 123.878Z" fill="#E6E6E6"/>
<path d="M288.071 164.446H189.082C188.2 164.445 187.354 164.079 186.731 163.428C186.107 162.777 185.756 161.894 185.755 160.973V145.837C185.756 144.916 186.107 144.033 186.731 143.382C187.354 142.731 188.2 142.365 189.082 142.364H288.071C288.953 142.365 289.799 142.731 290.423 143.382C291.046 144.033 291.397 144.916 291.398 145.837V160.973C291.397 161.894 291.046 162.777 290.423 163.428C289.799 164.079 288.953 164.445 288.071 164.446Z" fill="#E6E6E6"/>
<path d="M278.453 162.103H191.327C190.445 162.102 189.599 161.736 188.975 161.085C188.352 160.434 188.001 159.551 188 158.63V148.182C188.001 147.261 188.352 146.378 188.975 145.727C189.599 145.076 190.445 144.71 191.327 144.708H285.827C286.709 144.71 287.555 145.076 288.179 145.727C288.802 146.378 289.153 147.261 289.154 148.182V150.932C289.151 153.894 288.023 156.733 286.017 158.828C284.01 160.922 281.29 162.1 278.453 162.103Z" fill="white"/>
<path d="M248.4 152.328H208.613C208.501 152.328 208.389 152.305 208.285 152.26C208.181 152.215 208.086 152.149 208.007 152.066C207.927 151.983 207.864 151.884 207.821 151.775C207.778 151.667 207.755 151.55 207.755 151.433C207.755 151.315 207.778 151.198 207.821 151.09C207.864 150.981 207.927 150.882 208.007 150.799C208.086 150.716 208.181 150.65 208.285 150.605C208.389 150.56 208.501 150.537 208.613 150.537H248.4C248.627 150.537 248.845 150.631 249.006 150.799C249.167 150.967 249.258 151.195 249.258 151.433C249.258 151.67 249.167 151.898 249.006 152.066C248.845 152.234 248.627 152.328 248.4 152.328Z" fill="#AECAA5"/>
<path d="M268.54 155.992H208.613C208.501 155.992 208.389 155.969 208.285 155.924C208.181 155.879 208.086 155.813 208.007 155.73C207.927 155.646 207.864 155.548 207.821 155.439C207.778 155.33 207.755 155.214 207.755 155.096C207.755 154.979 207.778 154.862 207.821 154.753C207.864 154.645 207.927 154.546 208.007 154.463C208.086 154.38 208.181 154.314 208.285 154.269C208.389 154.224 208.501 154.2 208.613 154.2H268.54C268.768 154.2 268.986 154.295 269.147 154.463C269.308 154.631 269.398 154.859 269.398 155.096C269.398 155.334 269.308 155.562 269.147 155.73C268.986 155.898 268.768 155.992 268.54 155.992Z" fill="#E6E6E6"/>
<path d="M288.071 196.56H189.082C188.2 196.559 187.354 196.193 186.731 195.541C186.107 194.89 185.756 194.007 185.755 193.087V177.951C185.756 177.03 186.107 176.147 186.731 175.496C187.354 174.845 188.2 174.479 189.082 174.478H288.071C288.953 174.479 289.799 174.845 290.423 175.496C291.046 176.147 291.397 177.03 291.398 177.951V193.087C291.397 194.007 291.046 194.89 290.423 195.541C289.799 196.193 288.953 196.559 288.071 196.56Z" fill="#E6E6E6"/>
<path d="M278.453 194.217H191.327C190.445 194.216 189.599 193.85 188.975 193.199C188.352 192.548 188.001 191.665 188 190.744V180.295C188.001 179.375 188.352 178.492 188.975 177.841C189.599 177.19 190.445 176.823 191.327 176.822H285.827C286.709 176.823 287.555 177.19 288.179 177.841C288.802 178.492 289.153 179.375 289.154 180.295V183.045C289.151 186.007 288.023 188.847 286.017 190.941C284.01 193.036 281.29 194.214 278.453 194.217Z" fill="white"/>
<path d="M248.4 184.442H208.613C208.386 184.442 208.168 184.348 208.007 184.18C207.846 184.012 207.755 183.784 207.755 183.546C207.755 183.309 207.846 183.081 208.007 182.913C208.168 182.745 208.386 182.651 208.613 182.651H248.4C248.627 182.651 248.845 182.745 249.006 182.913C249.167 183.081 249.258 183.309 249.258 183.546C249.258 183.784 249.167 184.012 249.006 184.18C248.845 184.348 248.627 184.442 248.4 184.442Z" fill="#AECAA5"/>
<path d="M268.54 188.106H208.613C208.386 188.106 208.168 188.011 208.007 187.843C207.846 187.675 207.755 187.448 207.755 187.21C207.755 186.972 207.846 186.745 208.007 186.577C208.168 186.409 208.386 186.314 208.613 186.314H268.54C268.768 186.314 268.986 186.409 269.147 186.577C269.308 186.745 269.398 186.972 269.398 187.21C269.398 187.448 269.308 187.675 269.147 187.843C268.986 188.011 268.768 188.106 268.54 188.106Z" fill="#E6E6E6"/>
<path d="M139.765 88.2201C145.483 88.2201 150.118 83.381 150.118 77.4116C150.118 71.4422 145.483 66.603 139.765 66.603C134.048 66.603 129.412 71.4422 129.412 77.4116C129.412 83.381 134.048 88.2201 139.765 88.2201Z" fill="#FFB9B9"/>
<path d="M132.153 84.3629C132.029 84.3635 131.906 84.3427 131.788 84.3014C131.326 84.09 130.94 83.7316 130.684 83.2772C128.902 80.6008 128.041 77.0323 128.126 72.6709C128.162 70.8257 128.362 68.4666 129.6 66.5861C130.641 65.0048 132.747 63.75 134.709 64.3799C134.686 63.9702 134.773 63.5622 134.96 63.2012C135.147 62.8402 135.426 62.5406 135.767 62.3356C136.51 61.8604 137.405 61.773 138.194 61.6955C140.187 61.5005 142.247 61.2989 144.265 61.6982C146.528 62.1462 148.378 63.3637 149.341 65.0385L149.36 65.0912L149.556 66.0836C149.582 66.2171 149.636 66.3429 149.714 66.4526C149.791 66.5623 149.89 66.6531 150.004 66.7189C150.119 66.7847 150.245 66.8239 150.375 66.8337C150.505 66.8435 150.636 66.8238 150.758 66.7758C150.891 66.7235 151.036 66.7083 151.176 66.7318C151.317 66.7553 151.449 66.8166 151.56 66.9098C151.671 67.003 151.757 67.1248 151.809 67.2632C151.861 67.4016 151.878 67.5518 151.857 67.6989L151.803 68.0937L152.372 67.9825C152.514 67.9548 152.661 67.967 152.797 68.0178C152.934 68.0687 153.055 68.1563 153.148 68.2719C153.242 68.3875 153.304 68.5269 153.329 68.6758C153.354 68.8248 153.341 68.978 153.291 69.1198L153.13 69.5738C153.248 69.5746 153.364 69.6006 153.472 69.6501C153.58 69.6996 153.677 69.7717 153.757 69.8619C153.872 69.9911 153.944 70.1554 153.964 70.3307C153.983 70.5061 153.948 70.6833 153.864 70.8364C153.228 71.9719 152.326 72.9198 151.242 73.5907C150.65 73.9626 150.002 74.2285 149.326 74.3774C144.937 75.3662 140.412 75.5082 135.974 74.7965C136.237 75.7103 136.338 76.6664 136.273 77.618C136.131 78.8079 135.462 79.7898 134.568 80.1195C134.365 80.1886 134.156 80.2411 133.945 80.2764C133.743 80.3092 133.544 80.3597 133.35 80.4273C133.063 80.5375 132.808 80.7249 132.612 80.9705C132.417 81.2162 132.286 81.5114 132.235 81.8264C132.183 82.1415 132.212 82.4651 132.318 82.7648C132.424 83.0645 132.605 83.3296 132.841 83.5334L133.281 83.054L133.138 83.6635C133.108 83.7821 133.055 83.8929 132.981 83.9885C132.907 84.0842 132.815 84.1626 132.711 84.2187C132.539 84.3143 132.348 84.3638 132.153 84.3629Z" fill="#2F2E41"/>
<path d="M276.173 247.565L276.592 237.732C280.959 235.295 285.829 234.008 290.78 233.982C283.966 239.799 284.818 251.011 280.198 258.832C278.739 261.26 276.775 263.314 274.453 264.842C272.13 266.37 269.508 267.333 266.781 267.659L261.078 271.304C260.296 266.75 260.468 262.073 261.584 257.595C262.7 253.118 264.732 248.946 267.541 245.367C269.135 243.375 270.964 241.601 272.983 240.087C274.349 243.847 276.173 247.565 276.173 247.565Z" fill="#F2F2F2"/>
<path d="M317 271.545C317 271.605 316.989 271.664 316.967 271.719C316.945 271.775 316.913 271.825 316.873 271.867C316.832 271.909 316.784 271.943 316.731 271.966C316.678 271.989 316.621 272 316.564 272H0.435767C0.320195 272 0.20936 271.952 0.127638 271.867C0.045916 271.781 0 271.666 0 271.545C0 271.424 0.045916 271.309 0.127638 271.223C0.20936 271.138 0.320195 271.09 0.435767 271.09H316.564C316.621 271.09 316.678 271.102 316.731 271.124C316.784 271.147 316.832 271.181 316.873 271.223C316.913 271.265 316.945 271.315 316.967 271.371C316.989 271.426 317 271.485 317 271.545Z" fill="#CCCCCC"/>
</g>
<defs>
<clipPath id="clip0_1_607">
<rect width="317" height="272" fill="white"/>
</clipPath>
</defs>
</svg>
