<svg width="416" height="263" viewBox="0 0 416 263" fill="none" xmlns="http://www.w3.org/2000/svg">
<g clip-path="url(#clip0_17_308)">
<path opacity="0.1" d="M416 173.878C416.022 187.243 412.737 200.358 406.502 211.79C406.502 225.771 400.633 238.443 391.113 247.679C388.73 249.991 386.164 252.06 383.447 253.861C383.338 253.938 383.225 254.011 383.113 254.083C382.909 254.217 382.705 254.35 382.498 254.487L382.305 254.612C373.294 260.19 363.138 263.086 352.822 263.02H78.9708C60.0872 263.02 42.9926 255.719 30.6072 243.919C18.2217 232.119 10.589 215.788 10.589 197.777C3.6535 185.917 -0.0256532 172.072 -0.000112057 157.931C-0.000112057 117.895 28.8144 85.4389 64.3635 85.4389C65.6217 85.4389 66.869 85.4873 68.109 85.564C90.4144 43.3232 140.727 13.8676 199.178 13.8676C235.113 13.8676 267.96 24.9932 293.12 43.3757C302.651 37.3924 313.415 34.2549 324.364 34.2692C359.905 34.2692 388.727 66.7253 388.727 106.761C388.722 109.294 388.601 111.826 388.364 114.345C396.931 121.08 403.914 130.005 408.724 140.366C413.534 150.727 416.029 162.221 416 173.878Z" fill="#AECAA5"/>
<path opacity="0.1" d="M150.182 196.771C228.908 196.771 292.727 194.873 292.727 192.531C292.727 190.189 228.908 188.291 150.182 188.291C71.4562 188.291 7.63647 190.189 7.63647 192.531C7.63647 194.873 71.4562 196.771 150.182 196.771Z" fill="#AECAA5"/>
<g opacity="0.7">
<path d="M97.091 161.234H51.6365V189.099H97.091V161.234Z" fill="#65617D"/>
<path opacity="0.1" d="M81.4547 166.08H67.6365V169.311H81.4547V166.08Z" fill="black"/>
<path opacity="0.1" d="M79.7274 166.484H69.3638V168.907H79.7274V166.484Z" fill="black"/>
<path d="M143.273 161.234H97.8184V189.099H143.273V161.234Z" fill="#65617D"/>
<path opacity="0.1" d="M127.637 166.08H113.818V169.311H127.637V166.08Z" fill="black"/>
<path opacity="0.1" d="M125.909 166.484H115.546V168.907H125.909V166.484Z" fill="black"/>
<path d="M97.091 132.562H51.6365V160.427H97.091V132.562Z" fill="#65617D"/>
<path opacity="0.1" d="M81.4547 137.408H67.6365V140.639H81.4547V137.408Z" fill="black"/>
<path opacity="0.1" d="M79.7274 137.812H69.3638V140.235H79.7274V137.812Z" fill="black"/>
<path d="M143.273 132.562H97.8184V160.427H143.273V132.562Z" fill="#65617D"/>
<path opacity="0.1" d="M127.637 137.408H113.818V140.639H127.637V137.408Z" fill="black"/>
<path opacity="0.1" d="M125.909 137.812H115.546V140.235H125.909V137.812Z" fill="black"/>
<path d="M97.091 103.486H51.6365V131.351H97.091V103.486Z" fill="#65617D"/>
<path opacity="0.1" d="M81.4547 108.332H67.6365V111.563H81.4547V108.332Z" fill="black"/>
<path opacity="0.1" d="M79.7274 108.736H69.3638V111.159H79.7274V108.736Z" fill="black"/>
<path d="M143.273 103.486H97.8184V131.351H143.273V103.486Z" fill="#65617D"/>
<path opacity="0.1" d="M127.637 108.332H113.818V111.563H127.637V108.332Z" fill="black"/>
<path opacity="0.1" d="M125.909 108.736H115.546V111.159H125.909V108.736Z" fill="black"/>
<path d="M143.273 74.4102H97.8184V102.275H143.273V74.4102Z" fill="#65617D"/>
<path opacity="0.1" d="M127.637 79.2562H113.818V82.4868H127.637V79.2562Z" fill="black"/>
<path opacity="0.1" d="M125.909 79.66H115.546V82.083H125.909V79.66Z" fill="black"/>
</g>
<g opacity="0.7">
<path d="M189.455 160.83H144V188.695H189.455V160.83Z" fill="#65617D"/>
<path opacity="0.1" d="M173.818 165.676H160V168.907H173.818V165.676Z" fill="black"/>
<path opacity="0.1" d="M172.091 166.08H161.727V168.503H172.091V166.08Z" fill="black"/>
<path d="M235.636 160.83H190.182V188.695H235.636V160.83Z" fill="#65617D"/>
<path opacity="0.1" d="M220 165.676H206.182V168.907H220V165.676Z" fill="black"/>
<path opacity="0.1" d="M218.273 166.08H207.909V168.503H218.273V166.08Z" fill="black"/>
<path d="M189.455 132.158H144V160.023H189.455V132.158Z" fill="#65617D"/>
<path opacity="0.1" d="M173.818 137.004H160V140.235H173.818V137.004Z" fill="black"/>
<path opacity="0.1" d="M172.091 137.408H161.727V139.831H172.091V137.408Z" fill="black"/>
<path d="M235.636 132.158H190.182V160.023H235.636V132.158Z" fill="#65617D"/>
<path opacity="0.1" d="M220 137.004H206.182V140.235H220V137.004Z" fill="black"/>
<path opacity="0.1" d="M218.273 137.408H207.909V139.831H218.273V137.408Z" fill="black"/>
<path d="M189.455 103.082H144V130.947H189.455V103.082Z" fill="#65617D"/>
<path opacity="0.1" d="M173.818 107.928H160V111.159H173.818V107.928Z" fill="black"/>
<path opacity="0.1" d="M172.091 108.332H161.727V110.755H172.091V108.332Z" fill="black"/>
<path d="M235.636 103.082H190.182V130.947H235.636V103.082Z" fill="#65617D"/>
<path opacity="0.1" d="M220 107.928H206.182V111.159H220V107.928Z" fill="black"/>
<path opacity="0.1" d="M218.273 108.332H207.909V110.755H218.273V108.332Z" fill="black"/>
<path d="M235.636 74.0063H190.182V101.871H235.636V74.0063Z" fill="#65617D"/>
<path opacity="0.1" d="M220 78.8523H206.182V82.083H220V78.8523Z" fill="black"/>
<path opacity="0.1" d="M218.273 79.2562H207.909V81.6792H218.273V79.2562Z" fill="black"/>
</g>
<path opacity="0.1" d="M319.378 0.0444262C319.378 0.0444262 288.764 -2.00705 292.364 21.8191C292.364 21.8191 291.636 26.031 295.084 27.9412C295.084 27.9412 295.138 26.1764 298.225 26.7781C299.325 26.9805 300.441 27.0401 301.553 26.9558C303.054 26.8407 304.481 26.1858 305.618 25.0901C305.618 25.0901 314.225 21.1406 317.571 5.52039C317.571 5.52039 320.047 2.11205 319.949 1.23573L314.782 3.68699C314.782 3.68699 316.549 7.82628 315.145 11.2669C315.145 11.2669 314.978 3.83641 313.985 3.99795C313.785 4.03429 311.302 5.43155 311.302 5.43155C311.302 5.43155 314.338 12.64 312.047 17.8817C312.047 17.8817 312.916 8.99739 310.353 5.9525L306.716 8.31088C306.716 8.31088 310.265 15.7576 307.858 21.8352C307.858 21.8352 308.476 12.5148 305.949 8.88432L302.655 11.7394C302.655 11.7394 305.989 19.0811 303.956 24.1209C303.956 24.1209 303.691 13.2699 301.942 12.4502C301.942 12.4502 299.058 15.277 298.618 16.4319C298.618 16.4319 300.902 21.7625 299.484 24.5732C299.484 24.5732 298.615 17.3446 297.902 17.3042C297.902 17.3042 295.029 22.0937 294.731 25.3809C294.731 25.3809 294.855 20.4945 297.207 16.8479C297.207 16.8479 294.429 17.3769 292.807 19.3799C292.807 19.3799 293.255 15.9918 297.916 15.697C297.916 15.697 300.291 12.0625 300.924 11.8404C300.924 11.8404 296.291 11.4123 293.48 12.7934C293.48 12.7934 295.953 9.59911 301.775 11.0529L305.029 8.10088C305.029 8.10088 298.927 7.17611 296.338 8.1978C296.338 8.1978 299.316 5.37098 305.905 7.43456L309.455 5.10041C309.455 5.10041 304.251 3.8566 301.153 4.29274C301.153 4.29274 304.425 2.33416 310.495 4.45832L313.04 3.19432C313.04 3.19432 309.229 2.36242 308.113 2.22916C306.996 2.09589 306.938 1.75668 306.938 1.75668C309.353 1.30957 311.831 1.61574 314.098 2.64107C314.098 2.64107 319.473 0.41999 319.378 0.0444262Z" fill="#AECAA5"/>
<path opacity="0.1" d="M281.618 6.10595C281.618 6.10595 267.8 5.17713 269.418 15.9473C269.418 15.9473 269.095 17.8494 270.644 18.7136C270.644 18.7136 270.669 17.9059 272.065 18.1846C272.561 18.2773 273.066 18.3044 273.567 18.2653C274.246 18.2141 274.891 17.9177 275.404 17.4213C275.404 17.4213 279.295 15.6404 280.807 8.58144C280.807 8.58144 281.924 7.0388 281.88 6.64304L279.545 7.74954C279.545 7.74954 280.345 9.62333 279.716 11.1781C279.716 11.1781 279.64 7.81819 279.193 7.89896C279.102 7.89896 277.978 8.54509 277.978 8.54509C277.978 8.54509 279.353 11.804 278.316 14.1745C278.316 14.1745 278.709 10.1604 277.549 8.78335L275.905 9.84947C275.905 9.84947 277.513 13.2134 276.422 15.9595C276.422 15.9595 276.702 11.7475 275.56 10.1079L274.073 11.3961C274.073 11.3961 275.578 14.7157 274.662 16.9933C274.662 16.9933 274.542 12.0867 273.749 11.7192C273.749 11.7192 272.447 12.9953 272.247 13.5203C272.247 13.5203 273.28 15.9433 272.64 17.1952C272.64 17.1952 272.247 13.9282 271.913 13.9161C271.913 13.9161 270.618 16.0806 270.48 17.5506C270.545 16.1787 270.931 14.8494 271.6 13.694C270.851 13.8515 270.159 14.2488 269.611 14.8368C269.611 14.8368 269.815 13.3103 271.92 13.173C271.92 13.173 273.011 11.5335 273.28 11.4325C273.28 11.4325 271.185 11.2387 269.916 11.8646C269.916 11.8646 271.033 10.4189 273.665 11.0771L275.12 9.74447C275.12 9.74447 272.364 9.34064 271.193 9.7889C271.193 9.7889 272.538 8.51279 275.516 9.4416L277.116 8.37952C277.116 8.37952 274.767 7.81415 273.364 8.02011C273.364 8.02011 274.844 7.13168 277.585 8.0928L278.731 7.5234C278.731 7.5234 277.007 7.14379 276.502 7.08726C275.996 7.03072 275.971 6.87323 275.971 6.87323C277.063 6.67156 278.183 6.81139 279.207 7.27706C279.207 7.27706 281.662 6.27556 281.618 6.10595Z" fill="#AECAA5"/>
<path d="M81.5237 260.375C89.5991 260.375 96.1455 259.146 96.1455 257.629C96.1455 256.112 89.5991 254.883 81.5237 254.883C73.4483 254.883 66.9019 256.112 66.9019 257.629C66.9019 259.146 73.4483 260.375 81.5237 260.375Z" fill="#AECAA5"/>
<path d="M87.5709 253.138C88.2385 252.534 88.7244 251.719 88.9637 250.8C89.1455 249.875 88.7891 248.781 87.9891 248.422C87.0946 248.042 86.1382 248.733 85.4146 249.427C84.6909 250.122 83.8582 250.917 82.9128 250.768C83.4 250.276 83.7645 249.653 83.9709 248.959C84.1774 248.265 84.2187 247.523 84.0909 246.806C84.0496 246.509 83.9365 246.23 83.7637 245.999C83.2655 245.409 82.3673 245.659 81.7709 246.124C79.88 247.602 79.3528 250.457 79.3419 253.021C79.1528 252.097 79.3128 251.131 79.3091 250.194C79.3055 249.258 79.0691 248.175 78.3455 247.679C77.8992 247.412 77.3974 247.281 76.8909 247.299C76.0437 247.263 75.0946 247.36 74.5164 248.05C73.7891 248.906 73.9819 250.344 74.6073 251.281C75.2328 252.218 76.1891 252.819 77.0691 253.47C77.7731 253.936 78.3734 254.572 78.8255 255.331C78.88 255.437 78.9239 255.55 78.9564 255.666H84.2873C85.4796 254.992 86.5841 254.142 87.5709 253.138Z" fill="#AECAA5"/>
<path d="M260.858 138.115C260.828 137.809 260.73 137.516 260.572 137.264C260.413 137.011 260.201 136.807 259.953 136.669C259.744 136.57 259.519 136.519 259.293 136.519C259.066 136.518 258.841 136.569 258.632 136.666C258.423 136.764 258.234 136.908 258.076 137.089C257.918 137.27 257.795 137.484 257.713 137.719L249.636 156.59L247.818 230.895H250.727L251.818 156.756L260.705 139.286C260.866 138.923 260.92 138.513 260.858 138.115Z" fill="#3F3D56"/>
<path opacity="0.1" d="M391.113 247.679C388.73 249.991 386.165 252.06 383.447 253.861C383.405 253.928 383.357 253.99 383.305 254.047C383.017 254.319 382.674 254.51 382.305 254.604C373.294 260.182 363.138 263.078 352.822 263.012H152.887C129.978 260.395 116 256.926 116 253.118C116 250.166 124.393 247.416 138.844 245.114C140.342 244.872 141.904 244.638 143.531 244.412C144.532 244.272 145.556 244.137 146.604 244.008L148.382 243.778C149.701 243.611 151.055 243.448 152.444 243.289H152.556L154.011 243.127C155.24 242.986 156.495 242.853 157.775 242.724L158.705 242.631L161.08 242.396C162.622 242.243 164.198 242.096 165.807 241.956C167.143 241.841 168.501 241.725 169.88 241.609C183.865 240.458 199.989 239.59 217.535 239.028L222.545 238.839L224.233 238.798L227.796 238.709L229.225 238.677L230.727 238.645L231.796 238.625L236.815 238.536L239.393 238.495H239.92C246.017 238.415 252.228 238.373 258.553 238.37C271.055 238.37 283.178 238.536 294.731 238.851C301.364 239.028 307.794 239.255 314.022 239.529H314.08C332.036 240.313 348.109 241.468 361.411 242.901L361.655 242.93C365.069 243.297 368.302 243.689 371.335 244.093C374.189 244.472 376.869 244.872 379.356 245.28C380.218 245.421 381.055 245.567 381.869 245.708L382.076 245.748C385.524 246.366 388.549 246.996 391.113 247.679Z" fill="#AECAA5"/>
<path d="M383.447 253.861C383.405 253.928 383.357 253.99 383.305 254.047C383.017 254.319 382.674 254.51 382.305 254.604C381.57 254.833 380.814 254.969 380.051 255.008H379.822C379.386 255.024 378.95 255.008 378.516 254.96C378.2 254.909 377.88 254.886 377.56 254.891H377.516C377.051 254.964 376.594 255.089 376.153 255.267C375.169 255.566 374.155 255.726 373.135 255.743H372.771C371.629 255.743 370.473 255.699 369.327 255.707C369.142 255.707 368.964 255.707 368.771 255.707C366.807 255.763 364.855 256.111 362.891 256.147H362.262C360.338 256.094 358.371 255.638 356.84 254.346C356.531 254.119 356.281 253.808 356.113 253.441C355.982 253.055 355.939 252.639 355.985 252.23C356.022 251.499 356.149 250.703 356.644 250.211C356.954 249.946 357.311 249.755 357.691 249.649C358.356 249.411 359.025 249.181 359.691 248.951C360.356 248.721 361.116 248.474 361.833 248.24L361.971 248.191L362.371 248.058L362.629 247.961C362.942 247.85 363.242 247.698 363.524 247.509C363.895 247.248 364.209 246.899 364.444 246.487C364.484 246.415 364.527 246.338 364.564 246.261C364.6 246.184 364.564 246.136 364.538 246.071C364.476 245.567 364.429 245.05 364.349 244.557C363.326 244.293 362.393 243.707 361.662 242.869C361.034 242.178 360.505 241.384 360.095 240.515C359.189 238.625 358.724 236.513 358.047 234.506C357.011 231.453 355.502 228.634 353.982 225.839C352.593 223.263 351.196 220.678 349.618 218.243C348.567 216.628 347.436 215.089 346.396 213.47C343.454 208.951 341.344 203.833 340.185 198.407C340.008 197.366 339.756 196.342 339.433 195.346C338.807 193.65 337.662 192.269 336.775 190.718C335.821 189.046 335.167 187.186 334.851 185.238C334.669 184.132 334.364 182.936 333.371 182.815L333.265 183.045C331.207 187.487 329.095 192.01 325.993 195.637C325.497 196.17 325.043 196.749 324.636 197.369C324.31 197.97 324.019 198.593 323.764 199.235C323.273 200.387 322.621 201.446 321.833 202.373C321.598 202.636 321.343 202.875 321.069 203.087C320.706 203.381 320.302 203.606 319.873 203.754C319.704 203.811 319.531 203.854 319.356 203.883C319.356 203.931 319.375 203.976 319.378 204.024C319.382 204.073 319.4 204.129 319.407 204.182C319.942 207.413 319.713 210.742 318.742 213.846C318.716 213.942 318.687 214.035 318.655 214.132C318.504 214.585 318.341 215.029 318.164 215.465C317.72 216.535 317.193 217.561 316.778 218.647C316.709 218.833 316.64 219.019 316.578 219.204C315.124 223.529 315.487 228.359 315.298 233.007C315.282 234.024 315.173 235.036 314.975 236.028C314.727 237.147 314.331 238.302 314.113 239.457C313.914 240.322 313.898 241.228 314.065 242.102L313.978 242.138C313.589 242.3 313.193 242.445 312.796 242.582V242.643C312.938 243.547 313.076 244.452 313.218 245.353C313.338 246.128 313.48 246.968 313.967 247.517C314.1 247.638 314.222 247.774 314.331 247.921C314.618 248.422 314.364 249.084 314.418 249.678C314.498 250.518 315.196 251.232 315.087 252.068C315.038 252.318 314.935 252.551 314.787 252.746C314.639 252.942 314.45 253.095 314.236 253.191C314.057 253.281 313.869 253.347 313.676 253.389L313.556 253.417C313.338 253.462 313.12 253.486 312.902 253.51C310.193 253.809 307.447 254.108 304.764 253.599C304.233 253.498 303.705 253.365 303.167 253.316C302.487 253.282 301.806 253.314 301.131 253.409C296.152 253.932 291.146 254.04 286.153 253.732C284.855 253.651 283.364 253.417 282.676 252.185C282.105 251.164 282.313 249.843 282.6 248.676C282.682 248.247 282.831 247.837 283.04 247.465C283.063 247.424 283.09 247.386 283.12 247.352C283.789 246.427 285.047 246.37 286.131 246.407L289.673 246.524C290.021 246.555 290.372 246.525 290.713 246.435C291.287 246.249 291.724 245.74 292.262 245.453C292.938 245.094 293.789 245.05 294.276 244.436L294.338 244.347C294.424 244.217 294.504 244.082 294.578 243.943C294.578 243.915 294.611 243.887 294.629 243.858C294.642 243.833 294.657 243.809 294.673 243.786C295.12 243.131 295.902 242.913 296.538 242.497C296.635 242.435 296.726 242.363 296.811 242.283L296.884 242.211C296.198 241.668 295.601 241 295.116 240.236C294.929 240.013 294.791 239.745 294.713 239.453C294.668 239.233 294.683 239.004 294.756 238.794C294.772 238.743 294.791 238.693 294.815 238.645L294.833 238.604C295.08 238.063 295.589 237.575 295.869 237.021C295.88 237.004 295.888 236.985 295.895 236.965C296.28 236.157 296.356 234.905 295.785 234.255C296.076 228.937 297.393 223.756 297.684 218.421C297.8 216.309 297.753 214.189 297.84 212.069C297.927 209.949 298.131 207.893 298.345 205.813C298.825 201.06 299.989 196.404 299.825 191.631C299.811 191.186 299.828 190.74 299.876 190.298C299.875 190.266 299.875 190.233 299.876 190.201C299.993 189.223 300.268 188.276 300.687 187.407C301.214 186.424 301.811 185.489 302.473 184.612C304.709 181.381 307.396 178.151 308.193 174.177C308.604 172.126 309.513 170.248 310.418 168.402C310.953 167.304 311.509 166.177 312.364 165.369C312.826 165.014 313.256 164.608 313.647 164.158C314.244 163.302 314.265 162.119 314.618 161.101C314.8 160.572 315.08 160.087 315.218 159.542C315.218 159.486 315.244 159.433 315.255 159.377C315.335 158.826 315.378 158.27 315.382 157.713C315.382 157.551 315.404 157.394 315.422 157.236C315.634 155.64 316.052 154.085 316.662 152.62C316.738 152.435 316.811 152.245 316.884 152.059C315.206 150.972 313.726 149.546 312.52 147.855C312.111 147.308 311.756 146.714 311.462 146.082C310.713 144.431 310.542 142.549 310.189 140.74C309.345 136.427 307.415 132.364 307.145 127.954C307.065 126.61 307.145 125.22 306.724 123.948C306.608 123.604 306.47 123.27 306.313 122.947C306.247 122.81 306.185 122.672 306.12 122.543L306.047 122.39L305.862 121.986L305.564 122.244C298.124 128.713 290.314 134.638 282.182 139.98L281.484 140.441C281.12 140.636 280.804 140.923 280.56 141.281C280.531 141.333 280.505 141.386 280.48 141.438C280.313 141.822 280.269 142.246 280.116 142.65C279.789 143.575 278.949 144.164 278.091 144.439C276.538 144.882 274.892 144.647 273.491 143.781C273.313 143.68 273.127 143.575 272.967 143.457C272.542 143.719 272.094 143.932 271.629 144.092C270.175 144.56 268.651 144.54 267.145 144.536C265.64 144.532 264.102 144.536 262.676 145.085C261.724 145.444 260.8 146.038 259.811 146.095C259.697 146.103 259.583 146.103 259.469 146.095C258.905 146.023 258.357 145.844 257.847 145.565L257.549 145.416C257.395 145.335 257.244 145.244 257.098 145.146C256.939 145.036 256.791 144.908 256.658 144.762C256.466 144.547 256.326 144.282 256.251 143.991C256.202 143.78 256.202 143.559 256.251 143.348C256.265 143.254 256.309 143.168 256.375 143.106C256.439 143.064 256.514 143.043 256.589 143.046C257.006 143.041 257.422 143.08 257.833 143.163C258.074 143.199 258.317 143.214 258.56 143.207H258.691C258.905 143.182 259.113 143.107 259.3 142.989C259.488 142.871 259.652 142.712 259.782 142.521C259.822 142.461 259.854 142.396 259.876 142.327C259.92 142.213 259.943 142.091 259.942 141.967C259.944 141.936 259.944 141.905 259.942 141.874C259.789 141.798 259.636 141.721 259.491 141.628C259.415 141.584 259.342 141.535 259.269 141.487L259.225 141.454C259.095 141.356 258.973 141.244 258.862 141.119C258.791 141.042 258.729 140.955 258.676 140.861C258.58 140.715 258.507 140.551 258.462 140.376C258.162 140.307 257.852 140.316 257.556 140.405C257.16 140.526 256.76 140.784 256.367 140.873C256.169 140.928 255.961 140.919 255.767 140.845C255.2 140.619 255 139.851 254.88 139.193C254.858 139.068 254.833 138.939 254.815 138.809C254.773 138.561 254.773 138.306 254.815 138.058C254.99 137.494 255.326 137.008 255.771 136.673L256.964 135.563L257.051 135.482C257.051 135.373 257.011 135.264 256.996 135.155C256.955 134.905 256.955 134.649 256.996 134.4C257.172 133.836 257.508 133.352 257.953 133.018L260.593 130.551C261.087 130.091 261.625 129.606 262.269 129.558C263.225 129.485 263.989 130.365 264.705 131.072C265.607 131.96 266.702 132.687 267.905 132.776C268.479 132.805 269.052 132.718 269.596 132.518L269.905 132.405C269.84 132.255 269.775 132.106 269.713 131.956C269.607 131.71 269.502 131.46 269.4 131.209C270.949 131.1 272.356 130.155 273.531 129.025C274.705 127.894 275.713 126.557 276.898 125.447C278.178 124.235 279.647 123.335 280.945 122.167C283.964 119.45 285.967 115.456 289.196 113.061C290.316 112.225 291.611 111.559 292.375 110.315C292.611 109.911 292.789 109.507 293.033 109.103C293.807 107.892 295.135 107.335 296.229 106.495C297.324 105.655 298.276 104.423 299.167 103.24C299.8 102.396 300.436 101.552 301.04 100.684C301.596 99.5326 302.065 98.3292 302.647 97.1944C303.141 96.2358 303.717 95.3324 304.367 94.4968C304.516 94.1738 304.669 93.8507 304.833 93.5357C304.996 93.2207 305.116 93.0067 305.269 92.728C305.375 92.5463 305.484 92.3727 305.596 92.195C305.265 91.5448 304.949 90.9835 304.8 90.7371L304.727 90.6281C304.406 90.2486 304.064 89.8925 303.702 89.562C303.322 89.4981 302.945 89.4091 302.575 89.2955C300.33 88.6124 298.351 87.1287 296.94 85.0731C295.53 83.0174 294.768 80.5037 294.771 77.9195C294.769 77.9075 294.769 77.8952 294.771 77.8832C294.772 76.0324 295.169 74.2084 295.927 72.5606C296.08 72.2295 296.244 71.9105 296.422 71.5995C296.256 71.5413 296.094 71.4683 295.938 71.3815C295.673 71.2362 295.441 71.0248 295.262 70.7636C295.114 70.5309 295.018 70.2623 294.982 69.9802C294.92 69.3146 295.01 68.6425 295.244 68.0256C295.343 67.7286 295.456 67.4375 295.582 67.1533C295.592 67.1367 295.6 67.1191 295.607 67.1008C297.233 63.4663 300.698 61.2331 304.16 61.0756C307.895 60.9101 311.531 62.8566 314.476 65.643C315.355 66.4439 316.142 67.3621 316.818 68.3769C318.356 70.7515 319.051 73.7883 319.255 76.7969C319.331 77.7274 319.316 78.6644 319.211 79.5914C319.172 79.9217 319.112 80.2484 319.029 80.5686C318.982 80.7584 318.92 80.9482 318.855 81.1381C318.789 81.3279 318.749 81.4127 318.691 81.5419V81.5621C318.636 81.6913 318.575 81.8125 318.513 81.9336L318.48 81.9861L318.433 82.0709C318.462 82.1476 318.495 82.2284 318.527 82.3051C318.56 82.3818 318.589 82.4545 318.625 82.5272H318.669C319.396 82.5919 320.069 82.7049 320.811 82.7695C321.16 82.7879 321.506 82.8475 321.844 82.9472C322.571 83.1895 323.12 83.7791 323.731 84.2556C325.244 85.4429 327.105 85.9961 328.593 87.2238C330.775 89.033 331.865 92.0213 333.189 94.6987C334.935 98.2848 337.778 101.338 339.033 105.174C339.6 106.916 340.17 108.655 340.742 110.392C341.858 113.796 342.975 117.216 344.491 120.427C346.6 124.893 349.455 128.907 351.145 133.6C351.313 134.07 351.628 134.457 352.033 134.69C354.337 138.304 356.385 142.11 358.16 146.074C359.095 148.17 359.978 150.347 360.251 152.669C360.464 154.736 360.309 156.83 359.796 158.831C359.506 160.02 359.151 161.188 358.731 162.329C358.567 162.728 358.445 163.146 358.367 163.576C358.367 163.621 358.367 163.665 358.367 163.71C358.295 164.485 358.56 165.252 358.633 166.028C358.694 166.652 358.63 167.283 358.447 167.877C358.418 167.97 358.385 168.063 358.353 168.156C358.127 168.628 357.936 169.12 357.782 169.626C357.769 169.687 357.759 169.749 357.753 169.812C357.633 170.688 357.945 171.572 358.116 172.449C358.756 175.615 358.64 178.91 358.48 182.141C358.396 183.756 359.571 185.052 360.553 186.244C362.371 188.477 363.793 191.09 365.164 193.69C365.912 195.01 366.541 196.409 367.044 197.866C367.564 199.53 367.771 201.29 368.058 203.015C368.985 208.345 372.015 213.054 372.836 218.397C373.218 220.843 374.189 223.129 375.647 225.011C376.087 225.516 376.491 226.056 376.858 226.627C377.111 227.082 377.313 227.57 377.458 228.081C377.816 229.268 377.984 230.516 377.956 231.768C377.899 232.367 377.929 232.972 378.047 233.561C378.389 234.8 379.611 235.483 380.116 236.65C380.622 237.817 380.273 239.311 380.48 240.636C380.643 241.704 381.162 242.664 381.935 243.325C381.644 243.608 381.338 243.866 381.025 244.133C381.315 244.383 381.569 244.679 381.778 245.013C381.921 245.237 382.043 245.476 382.142 245.728C382.622 246.968 382.636 248.442 383.029 249.766C383.196 250.316 383.433 250.897 383.287 251.454C383.225 251.614 383.183 251.783 383.164 251.955C383.164 252.319 383.505 252.557 383.636 252.888C383.684 253.055 383.692 253.232 383.658 253.403C383.625 253.573 383.552 253.731 383.447 253.861Z" fill="url(#paint0_linear_17_308)"/>
<path d="M306.487 96.3666C308.713 95.7003 310.695 94.307 312.636 92.93L319.404 88.1446C317.567 87.983 315.982 86.5292 315.04 84.7685C314.098 83.0078 313.709 80.9604 313.389 78.9493C310.48 80.2092 307.96 82.3455 305.611 84.6029C304.68 85.4954 302.702 86.8442 302.415 88.2374C302.127 89.6307 303.96 90.7614 304.669 91.6942C304.913 92.0052 307.207 96.1445 306.487 96.3666Z" fill="#FBBEBE"/>
<path opacity="0.1" d="M306.487 96.3666C308.713 95.7003 310.695 94.307 312.636 92.93L319.404 88.1446C317.567 87.983 315.982 86.5292 315.04 84.7685C314.098 83.0078 313.709 80.9604 313.389 78.9493C310.48 80.2092 307.96 82.3455 305.611 84.6029C304.68 85.4954 302.702 86.8442 302.415 88.2374C302.127 89.6307 303.96 90.7614 304.669 91.6942C304.913 92.0052 307.207 96.1445 306.487 96.3666Z" fill="black"/>
<path d="M269.509 135.894C268.316 136.572 267.047 137.267 265.713 137.17C264.513 137.085 263.418 136.362 262.516 135.478C261.789 134.775 261.04 133.899 260.084 133.971C259.444 134.02 258.905 134.5 258.411 134.957L255.775 137.408C255.331 137.739 254.995 138.221 254.818 138.781C254.766 139.161 254.787 139.549 254.88 139.92C255 140.574 255.2 141.337 255.767 141.559C256.335 141.782 256.953 141.305 257.553 141.123C257.919 141.019 258.304 141.027 258.667 141.146C259.03 141.264 259.357 141.49 259.615 141.798C259.829 142.032 259.958 142.345 259.978 142.678C259.978 143.409 259.251 143.89 258.582 143.926C257.913 143.962 257.273 143.72 256.611 143.764C256.571 143.759 256.53 143.762 256.492 143.774C256.453 143.786 256.417 143.807 256.385 143.835C256.354 143.863 256.327 143.897 256.308 143.936C256.289 143.976 256.277 144.019 256.273 144.063C256.232 144.318 256.249 144.581 256.323 144.826C256.398 145.072 256.527 145.293 256.698 145.469C257.044 145.819 257.446 146.093 257.884 146.276C258.392 146.556 258.941 146.733 259.505 146.801C260.622 146.882 261.647 146.195 262.705 145.796C264.131 145.263 265.665 145.246 267.171 145.251C268.676 145.255 270.204 145.279 271.647 144.81C273.091 144.342 274.462 143.304 275.025 141.757C275.092 141.613 275.114 141.448 275.087 141.289C275.031 141.119 274.923 140.976 274.782 140.885C272.753 139.217 271.931 137.19 269.647 135.991L269.509 135.894Z" fill="#FBBEBE"/>
<path opacity="0.1" d="M269.509 135.894C268.316 136.572 267.047 137.267 265.713 137.17C264.513 137.085 263.418 136.362 262.516 135.478C261.789 134.775 261.04 133.899 260.084 133.971C259.444 134.02 258.905 134.5 258.411 134.957L255.775 137.408C255.331 137.739 254.995 138.221 254.818 138.781C254.766 139.161 254.787 139.549 254.88 139.92C255 140.574 255.2 141.337 255.767 141.559C256.335 141.782 256.953 141.305 257.553 141.123C257.919 141.019 258.304 141.027 258.667 141.146C259.03 141.264 259.357 141.49 259.615 141.798C259.829 142.032 259.958 142.345 259.978 142.678C259.978 143.409 259.251 143.89 258.582 143.926C257.913 143.962 257.273 143.72 256.611 143.764C256.571 143.759 256.53 143.762 256.492 143.774C256.453 143.786 256.417 143.807 256.385 143.835C256.354 143.863 256.327 143.897 256.308 143.936C256.289 143.976 256.277 144.019 256.273 144.063C256.232 144.318 256.249 144.581 256.323 144.826C256.398 145.072 256.527 145.293 256.698 145.469C257.044 145.819 257.446 146.093 257.884 146.276C258.392 146.556 258.941 146.733 259.505 146.801C260.622 146.882 261.647 146.195 262.705 145.796C264.131 145.263 265.665 145.246 267.171 145.251C268.676 145.255 270.204 145.279 271.647 144.81C273.091 144.342 274.462 143.304 275.025 141.757C275.092 141.613 275.114 141.448 275.087 141.289C275.031 141.119 274.923 140.976 274.782 140.885C272.753 139.217 271.931 137.19 269.647 135.991L269.509 135.894Z" fill="black"/>
<path d="M312.091 92.825C311.527 92.4206 310.886 92.1655 310.219 92.0794C309.552 91.9932 308.876 92.0784 308.244 92.3282C306.977 92.835 305.84 93.6763 304.931 94.7795C304.023 95.8073 303.238 96.9594 302.593 98.2081C301.975 99.4195 301.502 100.688 300.884 101.895C299.793 104.056 298.367 105.962 296.935 107.852C296.044 109.027 295.142 110.218 294 111.082C292.858 111.946 291.582 112.475 290.807 113.675C290.564 114.054 290.389 114.483 290.149 114.866C289.389 116.102 288.098 116.764 286.975 117.592C283.753 119.975 281.749 123.94 278.738 126.642C277.44 127.805 275.975 128.718 274.698 129.905C273.509 131.007 272.516 132.328 271.331 133.459C270.145 134.589 268.753 135.522 267.207 135.627C268.24 138.183 269.473 140.691 271.244 142.682C273.015 144.673 275.669 145.945 278.087 145.166C278.945 144.891 279.785 144.31 280.113 143.389C280.216 142.916 280.359 142.454 280.542 142.012C280.785 141.656 281.1 141.37 281.462 141.176C291.169 134.883 300.422 127.764 309.138 119.882C311.476 117.766 313.796 115.872 316.196 113.824C317.057 113.146 317.853 112.372 318.571 111.514C319.572 110.187 320.197 108.561 320.368 106.84C320.539 105.119 320.247 103.38 319.531 101.843C318.887 100.666 318.15 99.5566 317.327 98.5271C315.831 96.3635 314.068 94.444 312.091 92.825Z" fill="#AECAA5"/>
<path opacity="0.1" d="M312.091 92.825C311.527 92.4206 310.886 92.1655 310.219 92.0794C309.552 91.9932 308.876 92.0784 308.244 92.3282C306.977 92.835 305.84 93.6763 304.931 94.7795C304.023 95.8073 303.238 96.9594 302.593 98.2081C301.975 99.4195 301.502 100.688 300.884 101.895C299.793 104.056 298.367 105.962 296.935 107.852C296.044 109.027 295.142 110.218 294 111.082C292.858 111.946 291.582 112.475 290.807 113.675C290.564 114.054 290.389 114.483 290.149 114.866C289.389 116.102 288.098 116.764 286.975 117.592C283.753 119.975 281.749 123.94 278.738 126.642C277.44 127.805 275.975 128.718 274.698 129.905C273.509 131.007 272.516 132.328 271.331 133.459C270.145 134.589 268.753 135.522 267.207 135.627C268.24 138.183 269.473 140.691 271.244 142.682C273.015 144.673 275.669 145.945 278.087 145.166C278.945 144.891 279.785 144.31 280.113 143.389C280.216 142.916 280.359 142.454 280.542 142.012C280.785 141.656 281.1 141.37 281.462 141.176C291.169 134.883 300.422 127.764 309.138 119.882C311.476 117.766 313.796 115.872 316.196 113.824C317.057 113.146 317.853 112.372 318.571 111.514C319.572 110.187 320.197 108.561 320.368 106.84C320.539 105.119 320.247 103.38 319.531 101.843C318.887 100.666 318.15 99.5566 317.327 98.5271C315.831 96.3635 314.068 94.444 312.091 92.825Z" fill="black"/>
<path d="M296.466 242.635C295.829 243.039 295.047 243.265 294.6 243.919C294.455 244.129 294.356 244.375 294.2 244.577C293.716 245.207 292.858 245.235 292.186 245.595C291.647 245.878 291.211 246.402 290.64 246.568C290.299 246.658 289.946 246.688 289.596 246.657L286.062 246.54C284.942 246.503 283.629 246.568 282.978 247.582C282.767 247.953 282.617 248.363 282.535 248.793C282.262 249.952 282.04 251.265 282.611 252.282C283.295 253.494 284.793 253.74 286.084 253.821C291.071 254.127 296.071 254.019 301.044 253.498C301.716 253.402 302.395 253.371 303.073 253.405C303.611 253.453 304.138 253.587 304.669 253.688C307.349 254.192 310.091 253.898 312.796 253.599C313.254 253.574 313.704 253.468 314.131 253.284C314.343 253.188 314.531 253.035 314.679 252.841C314.827 252.646 314.929 252.414 314.978 252.165C315.091 251.333 314.389 250.627 314.313 249.791C314.258 249.201 314.513 248.543 314.222 248.042C314.113 247.894 313.991 247.759 313.858 247.638C313.371 247.077 313.229 246.257 313.109 245.49L312.473 241.342C312.455 241.05 312.347 240.773 312.167 240.559C312.034 240.452 311.879 240.382 311.716 240.353C308.946 239.658 306.106 240.293 303.353 240.68C301.936 240.911 300.503 240.991 299.073 240.918C298.455 240.874 298.215 240.793 297.753 241.242C297.291 241.69 297.044 242.259 296.466 242.635Z" fill="#3F3D56"/>
<path d="M363.378 247.626C362.892 247.928 362.371 248.155 361.829 248.3C360.401 248.764 358.976 249.247 357.553 249.75C357.174 249.854 356.819 250.044 356.509 250.308C356.015 250.792 355.887 251.584 355.851 252.327C355.804 252.736 355.847 253.152 355.978 253.538C356.149 253.9 356.399 254.209 356.705 254.435C358.335 255.804 360.462 256.228 362.505 256.228C364.549 256.228 366.578 255.844 368.622 255.784C371.091 255.711 373.625 256.099 376 255.331C376.453 255.145 376.924 255.018 377.404 254.952C377.722 254.946 378.041 254.969 378.356 255.02C379.63 255.16 380.916 255.03 382.145 254.637C382.516 254.546 382.86 254.356 383.149 254.083C383.292 253.946 383.394 253.763 383.442 253.56C383.49 253.357 383.482 253.142 383.418 252.945C383.287 252.617 382.953 252.379 382.949 252.02C382.966 251.847 383.007 251.678 383.069 251.519C383.218 250.966 382.978 250.388 382.811 249.843C382.342 248.284 382.418 246.491 381.578 245.138C380.738 243.786 379.196 243.228 377.731 243.014C376.54 242.827 375.329 242.866 374.149 243.127C372.822 243.442 371.582 244.101 370.28 244.521C368.769 245.003 367.191 245.169 365.625 245.009C364.585 244.912 364.942 245.094 364.589 246.063C364.339 246.71 363.916 247.255 363.378 247.626Z" fill="#3F3D56"/>
<path d="M305.273 90.7654C311.097 90.7654 315.818 85.5221 315.818 79.0543C315.818 72.5864 311.097 67.3431 305.273 67.3431C299.449 67.3431 294.727 72.5864 294.727 79.0543C294.727 85.5221 299.449 90.7654 305.273 90.7654Z" fill="#FBBEBE"/>
<path d="M381.724 243.438C378.451 246.56 374.033 247.925 369.724 247.973C367.905 247.994 366.018 247.776 364.469 246.73C364.36 246.067 364.316 245.353 364.207 244.69C362.327 244.254 360.869 242.554 359.96 240.672C359.051 238.79 358.589 236.698 357.913 234.703C356.88 231.667 355.367 228.868 353.855 226.09C352.465 223.529 351.073 220.961 349.491 218.542C348.444 216.927 347.309 215.408 346.273 213.797C343.337 209.312 341.229 204.225 340.073 198.831C339.896 197.797 339.644 196.78 339.32 195.79C338.695 194.102 337.549 192.729 336.665 191.19C335.712 189.53 335.059 187.68 334.742 185.743C334.564 184.644 334.258 183.457 333.265 183.344C331.178 187.847 329.051 192.422 325.895 196.085C325.398 196.614 324.945 197.189 324.538 197.805C324.212 198.403 323.921 199.024 323.665 199.663C323.176 200.809 322.525 201.861 321.738 202.78C321.078 203.564 320.209 204.091 319.258 204.283C319.959 208.163 319.542 212.19 318.065 215.792C317.625 216.858 317.098 217.876 316.684 218.954C314.989 223.396 315.382 228.408 315.204 233.225C315.188 234.235 315.081 235.24 314.884 236.226C314.444 238.197 313.535 240.292 313.975 242.263C309.415 244.198 304.349 244.076 299.52 243.261C298.575 243.165 297.659 242.856 296.825 242.352C296.141 241.814 295.543 241.15 295.058 240.389C294.871 240.168 294.733 239.901 294.655 239.61C294.465 238.689 295.382 237.995 295.807 237.187C296.233 236.379 296.309 235.099 295.724 234.437C296.015 229.151 297.331 223.99 297.622 218.687C297.738 216.588 297.691 214.48 297.778 212.376C297.865 210.272 298.069 208.224 298.28 206.157C298.76 201.436 299.924 196.808 299.76 192.063C299.71 190.602 300.013 189.154 300.636 187.867C301.162 186.889 301.758 185.96 302.418 185.089C304.651 181.886 307.335 178.676 308.131 174.722C308.542 172.683 309.451 170.817 310.353 168.984C310.887 167.889 311.444 166.771 312.295 165.967C312.757 165.611 313.187 165.206 313.578 164.756C314.175 163.904 314.196 162.736 314.549 161.719C314.731 161.194 315.011 160.709 315.145 160.168C315.256 159.57 315.311 158.961 315.309 158.351C315.425 156.396 316.102 154.506 316.815 152.717C315.138 151.64 313.658 150.223 312.451 148.542C312.045 147.996 311.692 147.404 311.396 146.777C310.647 145.137 310.476 143.268 310.124 141.471C309.284 137.182 307.353 133.148 307.084 128.766C307.004 127.429 307.084 126.048 306.665 124.784C306.472 124.249 306.246 123.73 305.989 123.23C305.736 122.738 305.542 122.211 305.415 121.663C305.182 120.471 305.502 119.24 305.415 118.028C305.327 116.958 304.916 115.957 304.713 114.911C304.505 113.55 304.469 112.163 304.607 110.791C304.698 109.176 305.015 107.508 304.891 105.913C304.69 103.274 304.993 100.617 305.78 98.1161C306.566 95.6153 307.818 93.3266 309.455 91.3994L309.538 91.3066C310.233 90.4989 310.993 89.7841 311.618 88.928C312.469 87.7811 313.073 86.4323 313.971 85.3177C314.364 84.821 314.807 84.3768 315.196 83.876C315.553 83.3508 315.948 82.8592 316.378 82.4061C316.595 82.1819 316.859 82.0202 317.145 81.9351C317.432 81.8499 317.733 81.8439 318.022 81.9175C318.095 82.5197 318.265 83.1025 318.524 83.6378C319.28 83.7024 319.953 83.8195 320.705 83.8841C321.054 83.9025 321.401 83.9621 321.738 84.0618C322.447 84.3001 323.015 84.8695 323.622 85.3581C325.135 86.5413 326.993 87.0905 328.48 88.3101C330.662 90.1072 331.753 93.0753 333.069 95.7366C334.811 99.3024 337.651 102.335 338.887 106.147L340.593 111.333C341.709 114.717 342.825 118.113 344.338 121.303C346.444 125.745 349.295 129.747 350.985 134.395C351.154 134.862 351.468 135.246 351.869 135.478C354.171 139.064 356.218 142.845 357.989 146.785C358.924 148.869 359.807 151.033 360.076 153.339C360.473 156.598 359.673 159.893 358.56 162.938C358.38 163.374 358.258 163.837 358.196 164.311C358.124 165.083 358.389 165.842 358.462 166.613C358.532 167.334 358.436 168.062 358.182 168.729C357.956 169.198 357.765 169.687 357.611 170.191C357.415 171.12 357.764 172.065 357.953 172.994C358.593 176.14 358.476 179.399 358.316 182.621C358.233 184.237 359.407 185.517 360.385 186.7C362.204 188.917 363.622 191.51 364.993 194.098C365.738 195.411 366.366 196.801 366.869 198.249C367.389 199.901 367.596 201.65 367.884 203.366C368.807 208.66 371.833 213.341 372.655 218.651C373.035 221.084 374.006 223.355 375.462 225.221C375.901 225.726 376.305 226.266 376.673 226.837C376.924 227.29 377.124 227.775 377.269 228.283C377.627 229.462 377.795 230.701 377.767 231.945C377.71 232.54 377.74 233.142 377.858 233.726C378.2 234.958 379.422 235.636 379.924 236.795C380.425 237.954 380.08 239.44 380.287 240.757C380.444 241.82 380.957 242.778 381.724 243.438Z" fill="#AECAA5"/>
<path d="M271.691 132.259C270.498 132.938 269.229 133.632 267.895 133.535C266.695 133.45 265.6 132.728 264.698 131.843C263.971 131.141 263.222 130.264 262.265 130.337C261.625 130.385 261.087 130.866 260.593 131.322L257.956 133.774C257.513 134.105 257.177 134.586 257 135.147C256.948 135.527 256.969 135.915 257.062 136.285C257.182 136.94 257.382 137.703 257.949 137.925C258.516 138.147 259.135 137.671 259.735 137.489C260.101 137.385 260.486 137.392 260.849 137.511C261.212 137.63 261.539 137.855 261.796 138.163C262.011 138.397 262.14 138.711 262.16 139.044C262.16 139.775 261.433 140.255 260.764 140.291C260.095 140.328 259.455 140.085 258.793 140.13C258.753 140.124 258.712 140.128 258.673 140.14C258.635 140.152 258.598 140.172 258.567 140.2C258.535 140.228 258.509 140.263 258.49 140.302C258.471 140.341 258.459 140.384 258.455 140.429C258.414 140.684 258.431 140.946 258.505 141.192C258.58 141.437 258.709 141.658 258.88 141.834C259.226 142.184 259.628 142.458 260.065 142.642C260.574 142.921 261.123 143.099 261.687 143.167C262.804 143.247 263.829 142.561 264.887 142.161C266.313 141.628 267.847 141.612 269.353 141.616C270.858 141.62 272.385 141.644 273.829 141.176C275.273 140.707 276.644 139.67 277.207 138.123C277.274 137.979 277.296 137.814 277.269 137.654C277.213 137.484 277.105 137.341 276.964 137.251C274.935 135.583 274.113 133.555 271.829 132.356L271.691 132.259Z" fill="#FBBEBE"/>
<path d="M300.142 71.858C299.513 71.971 298.978 72.4435 298.382 72.706C297.982 72.8787 297.553 72.955 297.124 72.93C296.695 72.9049 296.276 72.779 295.895 72.5606C295.628 72.417 295.396 72.2069 295.215 71.9468C294.727 71.1957 294.898 70.1053 295.196 69.225C296.607 65.0615 300.375 62.485 304.105 62.3194C307.836 62.1539 311.465 64.0882 314.407 66.8545C315.282 67.6527 316.067 68.5652 316.745 69.5723C318.28 71.9347 318.975 74.9513 319.178 77.9397C319.3 79.1937 319.225 80.4617 318.956 81.6872C318.827 82.2828 318.591 82.8433 318.263 83.3353C317.934 83.8272 317.519 84.2405 317.044 84.5504C316.004 85.14 314.756 84.9543 313.705 84.3889C312.655 83.8235 311.753 82.9311 310.851 82.079C310.442 81.6415 309.959 81.2996 309.429 81.0734C309.165 80.9689 308.879 80.9514 308.606 81.0231C308.333 81.0947 308.085 81.2524 307.891 81.4773C307.404 82.1274 307.527 83.1935 307.084 83.9003C306.64 84.607 305.716 84.7079 304.938 84.7079C304.16 84.7079 303.371 84.6352 302.905 83.9487C302.48 83.3268 302.542 82.4182 302.702 81.6347C302.862 80.8513 303.135 80.076 303.065 79.2723C302.916 77.657 301.644 76.6636 301.247 75.1775C300.989 74.2042 301.556 73.7923 301.498 72.912C301.455 72.1366 300.705 71.757 300.142 71.858Z" fill="#3F3D56"/>
<path opacity="0.1" d="M333.273 183.243V183.344C331.186 187.847 329.058 192.422 325.902 196.085C325.406 196.614 324.952 197.189 324.546 197.805C324.22 198.403 323.928 199.024 323.673 199.663C323.183 200.809 322.533 201.861 321.746 202.781L319.113 204.242L327.476 155.782L333.273 183.243Z" fill="black"/>
<path opacity="0.1" d="M321.116 109.899C320.398 110.757 319.602 111.531 318.742 112.209C316.342 114.228 314.015 116.134 311.684 118.266C309.805 119.965 307.899 121.629 305.967 123.258C305.714 122.766 305.521 122.239 305.393 121.691C305.16 120.5 305.48 119.268 305.393 118.056C305.306 116.986 304.895 115.985 304.691 114.939C304.483 113.578 304.448 112.192 304.586 110.82C304.676 109.204 304.993 107.537 304.869 105.941C304.668 103.296 304.972 100.632 305.763 98.1263C306.553 95.6202 307.811 93.3278 309.455 91.3994L309.538 91.3065C309.93 91.0538 310.344 90.8481 310.775 90.6927C311.409 90.4458 312.085 90.364 312.752 90.4536C313.42 90.5432 314.059 90.8019 314.622 91.2096C316.599 92.8287 318.362 94.7482 319.858 96.9117C320.681 97.9412 321.418 99.0509 322.062 100.227C322.78 101.763 323.074 103.501 322.906 105.222C322.738 106.943 322.115 108.57 321.116 109.899Z" fill="black"/>
<path d="M314.273 89.1905C313.709 88.7861 313.068 88.531 312.401 88.4449C311.734 88.3588 311.058 88.4439 310.426 88.6938C309.159 89.2005 308.022 90.0418 307.113 91.145C306.205 92.1728 305.42 93.3249 304.775 94.5736C304.156 95.7851 303.684 97.0531 303.066 98.2606C301.975 100.421 300.549 102.327 299.116 104.217C298.226 105.392 297.324 106.584 296.182 107.448C295.04 108.312 293.764 108.841 292.989 110.04C292.746 110.42 292.571 110.848 292.331 111.232C291.571 112.467 290.28 113.13 289.156 113.958C285.935 116.34 283.931 120.306 280.92 123.007C279.622 124.17 278.156 125.083 276.88 126.27C275.691 127.373 274.698 128.693 273.513 129.824C272.327 130.955 270.935 131.888 269.389 131.993C270.422 134.549 271.655 137.057 273.426 139.048C275.196 141.039 277.851 142.311 280.269 141.531C281.127 141.257 281.967 140.675 282.295 139.754C282.398 139.281 282.541 138.82 282.724 138.377C282.967 138.022 283.282 137.735 283.644 137.541C293.351 131.249 302.604 124.129 311.32 116.247C313.658 114.131 315.978 112.237 318.378 110.19C319.239 109.512 320.034 108.738 320.753 107.88C321.754 106.552 322.379 104.926 322.55 103.205C322.721 101.484 322.429 99.7457 321.713 98.2081C321.069 97.0317 320.332 95.9221 319.509 94.8926C318.013 92.729 316.25 90.8096 314.273 89.1905Z" fill="#AECAA5"/>
<g opacity="0.1">
<path d="M305.665 83.0805C304.938 83.0805 304.098 83.0078 303.633 82.3213C303.211 81.6994 303.269 80.7908 303.429 80.0073C303.589 79.2239 303.862 78.4485 303.793 77.6449C303.644 76.0296 302.371 75.0361 301.975 73.55C301.716 72.5768 302.284 72.1649 302.225 71.2845C302.175 70.5213 301.429 70.1417 300.865 70.2427C300.236 70.3557 299.702 70.8282 299.105 71.0907C298.705 71.2634 298.277 71.3397 297.848 71.3147C297.419 71.2896 297 71.1637 296.618 70.9453C296.352 70.8017 296.119 70.5916 295.938 70.3315C295.451 69.5804 295.622 68.49 295.92 67.6097C295.92 67.5774 295.945 67.5491 295.956 67.5168C295.652 68.0571 295.396 68.6293 295.193 69.225C294.895 70.1054 294.724 71.1957 295.211 71.9468C295.392 72.2069 295.625 72.417 295.891 72.5606C296.273 72.779 296.692 72.9049 297.12 72.93C297.549 72.9551 297.978 72.8787 298.378 72.706C298.975 72.4435 299.509 71.9711 300.138 71.858C300.702 71.757 301.447 72.1366 301.498 72.8999C301.556 73.7802 300.989 74.1921 301.247 75.1654C301.636 76.6515 302.909 77.6611 303.065 79.2602C303.138 80.0679 302.873 80.8433 302.702 81.6227C302.531 82.4021 302.484 83.3147 302.905 83.9366C303.371 84.6231 304.204 84.6877 304.938 84.6958C305.673 84.7039 306.618 84.6474 307.084 83.8882C307.285 83.5069 307.417 83.0858 307.473 82.6484C306.978 83.0401 306.287 83.0886 305.665 83.0805Z" fill="black"/>
<path d="M317.771 82.9351C316.731 83.5247 315.484 83.339 314.433 82.7736C313.382 82.2082 312.48 81.3158 311.578 80.4637C311.17 80.0262 310.686 79.6843 310.156 79.4581C309.892 79.3536 309.606 79.3361 309.333 79.4078C309.061 79.4794 308.812 79.6371 308.618 79.862C308.371 80.2674 308.215 80.7327 308.164 81.2188C308.353 81.0951 308.563 81.0177 308.782 80.992C309 80.9662 309.221 80.9926 309.429 81.0694C309.959 81.2955 310.442 81.6375 310.851 82.075C311.753 82.927 312.669 83.8236 313.705 84.3849C314.742 84.9462 316.004 85.136 317.044 84.5464C317.963 83.9486 318.634 82.972 318.909 81.8286C318.61 82.2886 318.221 82.667 317.771 82.9351Z" fill="black"/>
</g>
<path d="M227.273 256.539C233.298 256.539 238.182 251.115 238.182 244.424C238.182 237.733 233.298 232.309 227.273 232.309C221.248 232.309 216.364 237.733 216.364 244.424C216.364 251.115 221.248 256.539 227.273 256.539Z" fill="#3F3D56"/>
<path opacity="0.1" d="M227.273 256.539C233.298 256.539 238.182 251.115 238.182 244.424C238.182 237.733 233.298 232.309 227.273 232.309C221.248 232.309 216.364 237.733 216.364 244.424C216.364 251.115 221.248 256.539 227.273 256.539Z" fill="black"/>
<path d="M227.273 252.096C231.088 252.096 234.182 248.661 234.182 244.424C234.182 240.186 231.088 236.751 227.273 236.751C223.457 236.751 220.364 240.186 220.364 244.424C220.364 248.661 223.457 252.096 227.273 252.096Z" fill="#65617D"/>
<path opacity="0.1" d="M227.273 252.096C231.088 252.096 234.182 248.661 234.182 244.424C234.182 240.186 231.088 236.751 227.273 236.751C223.457 236.751 220.364 240.186 220.364 244.424C220.364 248.661 223.457 252.096 227.273 252.096Z" fill="black"/>
<path d="M218.909 225.444L226.066 243.414C226.172 243.683 226.346 243.913 226.566 244.077C226.787 244.24 227.044 244.33 227.309 244.336C227.574 244.342 227.835 244.264 228.061 244.11C228.287 243.957 228.469 243.735 228.586 243.471L237.091 224.232L218.909 225.444Z" fill="#3F3D56"/>
<path opacity="0.1" d="M218.909 225.444L226.066 243.414C226.172 243.683 226.346 243.913 226.566 244.077C226.787 244.24 227.044 244.33 227.309 244.336C227.574 244.342 227.835 244.264 228.061 244.11C228.287 243.957 228.469 243.735 228.586 243.471L237.091 224.232L218.909 225.444Z" fill="black"/>
<path d="M159.273 256.539C165.298 256.539 170.182 251.115 170.182 244.424C170.182 237.733 165.298 232.309 159.273 232.309C153.248 232.309 148.364 237.733 148.364 244.424C148.364 251.115 153.248 256.539 159.273 256.539Z" fill="#3F3D56"/>
<path opacity="0.1" d="M159.273 256.539C165.298 256.539 170.182 251.115 170.182 244.424C170.182 237.733 165.298 232.309 159.273 232.309C153.248 232.309 148.364 237.733 148.364 244.424C148.364 251.115 153.248 256.539 159.273 256.539Z" fill="black"/>
<path d="M159.273 252.096C163.088 252.096 166.182 248.661 166.182 244.424C166.182 240.186 163.088 236.751 159.273 236.751C155.457 236.751 152.364 240.186 152.364 244.424C152.364 248.661 155.457 252.096 159.273 252.096Z" fill="#65617D"/>
<path opacity="0.1" d="M159.273 252.096C163.088 252.096 166.182 248.661 166.182 244.424C166.182 240.186 163.088 236.751 159.273 236.751C155.457 236.751 152.364 240.186 152.364 244.424C152.364 248.661 155.457 252.096 159.273 252.096Z" fill="black"/>
<path d="M150.909 225.444L158.066 243.414C158.172 243.683 158.346 243.913 158.566 244.077C158.787 244.24 159.044 244.33 159.309 244.336C159.574 244.342 159.835 244.264 160.061 244.11C160.287 243.957 160.469 243.735 160.586 243.471L169.091 224.232L150.909 225.444Z" fill="#3F3D56"/>
<path opacity="0.1" d="M150.909 225.444L158.066 243.414C158.172 243.683 158.346 243.913 158.566 244.077C158.787 244.24 159.044 244.33 159.309 244.336C159.574 244.342 159.835 244.264 160.061 244.11C160.287 243.957 160.469 243.735 160.586 243.471L169.091 224.232L150.909 225.444Z" fill="black"/>
<path d="M262.676 138.922C262.647 138.617 262.548 138.324 262.39 138.071C262.232 137.819 262.019 137.614 261.771 137.477C261.562 137.378 261.338 137.327 261.111 137.326C260.884 137.326 260.659 137.376 260.45 137.474C260.241 137.572 260.052 137.716 259.894 137.897C259.736 138.077 259.613 138.292 259.531 138.527L253.273 155.782L251.455 233.318H254.364L255.455 155.948L262.524 140.094C262.684 139.731 262.738 139.321 262.676 138.922Z" fill="#3F3D56"/>
<path d="M134 227.261L143.818 220.396L249.818 219.386L252.545 227.261H134Z" fill="#AECAA5"/>
<path d="M134 234.53V227.261L254.465 225.969L254.349 230.895H136.182V234.53H134Z" fill="#3F3D56"/>
<path d="M149.273 260.779C155.298 260.779 160.182 255.355 160.182 248.664C160.182 241.973 155.298 236.549 149.273 236.549C143.248 236.549 138.364 241.973 138.364 248.664C138.364 255.355 143.248 260.779 149.273 260.779Z" fill="#3F3D56"/>
<path d="M149.273 256.337C153.088 256.337 156.182 252.901 156.182 248.664C156.182 244.426 153.088 240.991 149.273 240.991C145.457 240.991 142.364 244.426 142.364 248.664C142.364 252.901 145.457 256.337 149.273 256.337Z" fill="#65617D"/>
<path d="M140.909 229.684L148.066 247.654C148.172 247.924 148.346 248.154 148.566 248.317C148.787 248.48 149.044 248.57 149.309 248.576C149.574 248.582 149.835 248.504 150.061 248.351C150.287 248.197 150.469 247.975 150.586 247.711L159.091 228.472L140.909 229.684Z" fill="#3F3D56"/>
<path d="M234 260.779C240.025 260.779 244.909 255.355 244.909 248.664C244.909 241.973 240.025 236.549 234 236.549C227.975 236.549 223.091 241.973 223.091 248.664C223.091 255.355 227.975 260.779 234 260.779Z" fill="#3F3D56"/>
<path d="M234 256.337C237.816 256.337 240.909 252.901 240.909 248.664C240.909 244.426 237.816 240.991 234 240.991C230.184 240.991 227.091 244.426 227.091 248.664C227.091 252.901 230.184 256.337 234 256.337Z" fill="#65617D"/>
<path d="M225.636 229.684L232.793 247.654C232.899 247.924 233.073 248.154 233.293 248.317C233.514 248.48 233.772 248.57 234.037 248.576C234.301 248.582 234.562 248.504 234.789 248.351C235.015 248.197 235.197 247.975 235.313 247.711L243.818 228.472L225.636 229.684Z" fill="#3F3D56"/>
<path d="M193.091 195.56H147.636V223.424H193.091V195.56Z" fill="#65617D"/>
<path opacity="0.1" d="M177.455 200.406H163.636V203.637H177.455V200.406Z" fill="black"/>
<path opacity="0.1" d="M175.727 200.81H165.364V203.233H175.727V200.81Z" fill="black"/>
<path d="M239.273 195.56H193.818V223.424H239.273V195.56Z" fill="#65617D"/>
<path opacity="0.1" d="M223.636 200.406H209.818V203.637H223.636V200.406Z" fill="black"/>
<path opacity="0.1" d="M221.909 200.81H211.545V203.233H221.909V200.81Z" fill="black"/>
<path d="M193.091 166.888H147.636V194.752H193.091V166.888Z" fill="#65617D"/>
<path opacity="0.1" d="M177.455 171.734H163.636V174.964H177.455V171.734Z" fill="black"/>
<path opacity="0.1" d="M175.727 172.138H165.364V174.561H175.727V172.138Z" fill="black"/>
<path d="M239.273 166.888H193.818V194.752H239.273V166.888Z" fill="#65617D"/>
<path opacity="0.1" d="M223.636 171.734H209.818V174.964H223.636V171.734Z" fill="black"/>
<path opacity="0.1" d="M221.909 172.138H211.545V174.561H221.909V172.138Z" fill="black"/>
<path d="M193.091 137.812H147.636V165.676H193.091V137.812Z" fill="#65617D"/>
<path opacity="0.1" d="M177.455 142.658H163.636V145.889H177.455V142.658Z" fill="black"/>
<path opacity="0.1" d="M175.727 143.062H165.364V145.485H175.727V143.062Z" fill="black"/>
<path d="M239.273 137.812H193.818V165.676H239.273V137.812Z" fill="#65617D"/>
<path opacity="0.1" d="M223.636 142.658H209.818V145.889H223.636V142.658Z" fill="black"/>
<path opacity="0.1" d="M221.909 143.062H211.545V145.485H221.909V143.062Z" fill="black"/>
<path d="M239.273 108.736H193.818V136.6H239.273V108.736Z" fill="#65617D"/>
<path opacity="0.1" d="M223.636 113.582H209.818V116.813H223.636V113.582Z" fill="black"/>
<path opacity="0.1" d="M221.909 113.986H211.545V116.409H221.909V113.986Z" fill="black"/>
</g>
<defs>
<linearGradient id="paint0_linear_17_308" x1="319.211" y1="256.191" x2="319.211" y2="61.0837" gradientUnits="userSpaceOnUse">
<stop stop-color="#808080" stop-opacity="0.25"/>
<stop offset="0.54" stop-color="#808080" stop-opacity="0.12"/>
<stop offset="1" stop-color="#808080" stop-opacity="0.1"/>
</linearGradient>
<clipPath id="clip0_17_308">
<rect width="416" height="263" fill="white"/>
</clipPath>
</defs>
</svg>
